<?xml version="1.0" encoding="utf-8"?>
<!-- Generator: Adobe Illustrator 27.5.0, SVG Export Plug-In . SVG Version: 6.00 Build 0)  -->
<svg version="1.1" xmlns="http://www.w3.org/2000/svg" xmlns:xlink="http://www.w3.org/1999/xlink" x="0px" y="0px"
	 viewBox="0 0 500 500" style="enable-background:new 0 0 500 500;" xml:space="preserve">
<g id="Floor">
	<ellipse id="Floor_5_" style="fill:#F5F5F5;" cx="250" cy="357.869" rx="223" ry="128.324"/>
</g>
<g id="Shadows">
	<ellipse id="Shadow_6_" style="fill:#E0E0E0;" cx="384.432" cy="338.747" rx="37.316" ry="21.544"/>
	<path id="Shadow_13_" style="fill:#E0E0E0;" d="M191.297,461.116l-56.053-32.47c-1.277-0.74-1.276-1.937,0.002-2.675
		l134.292-77.533c1.278-0.738,3.35-0.738,4.628,0l56.151,32.418c1.278,0.738,1.278,1.934,0,2.672l-134.394,77.592
		C194.645,461.857,192.574,461.856,191.297,461.116z"/>
</g>
<g id="Plants">
	<g id="Plants_2_">
		<g id="XMLID_1084_">
			<g id="XMLID_1102_">
				<path id="XMLID_1103_" style="fill:#27DEBF;" d="M159.482,394.28c0,0,2.181-14.667-1.951-27.604
					c-4.132-12.938-12.021-22.43-20.907-25.57c-8.886-3.141-18.447,3.254-10.265,11.582s23.877,18.787,26.092,42.358L159.482,394.28
					z"/>
			</g>
			<g id="XMLID_1096_" style="opacity:0.15;">
				<path id="XMLID_1101_" d="M159.482,394.28c0,0,2.181-14.667-1.951-27.604c-4.132-12.938-12.021-22.43-20.907-25.57
					c-8.886-3.141-18.447,3.254-10.265,11.582s23.877,18.787,26.092,42.358L159.482,394.28z"/>
			</g>
			<g id="XMLID_1085_">
				<path id="XMLID_1087_" style="fill:#FFFFFF;" d="M157.807,389.872c0.034,0.003,0.069,0.003,0.103-0.003
					c0.275-0.034,0.47-0.285,0.435-0.56c-3.282-26.15-18.89-40.869-26.685-44.998c-0.243-0.132-0.548-0.036-0.678,0.208
					c-0.13,0.245-0.037,0.549,0.209,0.678c7.635,4.045,22.928,18.497,26.159,44.236C157.38,389.675,157.576,389.854,157.807,389.872
					z"/>
			</g>
		</g>
		<g id="XMLID_1075_">
			<g id="XMLID_1080_">
				<g id="XMLID_1081_">
					<path id="XMLID_1083_" style="fill:#27DEBF;" d="M114.144,373.513c0.288,1.958,1.938,3.395,3.511,4.601
						c1.564,1.197,3.28,2.505,3.778,4.42c1.001,3.865-3.465,7.665-2.298,11.483c0.49,1.6,1.906,2.766,3.414,3.492
						c1.25,0.614,2.594,0.986,3.901,1.47c0.647,0.166,1.297,0.296,1.943,0.381c1.91,0.244,3.925,0.712,5.345,2.119
						c2.232,2.223,2.115,5.79,3.005,8.813c1.068,3.62,3.913,6.587,7.357,8.07c2.891,1.232,7.576,1.81,8.72,0.698
						c0.87-0.845-0.041-4.376,0.246-5.555c0.737-3.022,1.188-6.114,1.345-9.221c0.077-1.513,0.137-2.745,0.555-4.206
						c0.437-1.53,0.865-3.063,1.28-4.599c0.451-1.663,1.202-2.857,1.07-4.693c-0.126-1.751-0.746-3.455-1.381-5.077
						c-0.631-1.611-1.276-3.217-1.935-4.816c-0.778-1.887-1.587-3.786-2.805-5.423c-2.114-2.842-5.447-4.744-8.97-5.118
						c-2.919-0.31-6.085,0.499-8.924-0.433c-2.762-0.907-5.294-2.418-8.205-3.013c-3.045-0.623-6.444-0.205-8.861,1.885
						C114.875,369.965,113.884,371.736,114.144,373.513z"/>
				</g>
			</g>
			<g id="XMLID_1078_">
				<path id="XMLID_1079_" style="fill:#FFFFFF;" d="M152.423,410.935c0.012,0.001,0.024,0.001,0.036,0.002
					c0.245,0.003,0.447-0.195,0.45-0.441c0.305-28.009-26.12-39.42-32.677-40.745c-0.238-0.046-0.475,0.107-0.525,0.348
					c-0.049,0.241,0.107,0.476,0.348,0.525c6.414,1.295,32.261,12.459,31.964,39.862
					C152.016,410.721,152.194,410.915,152.423,410.935z"/>
			</g>
			<g id="XMLID_1076_">
				<path id="XMLID_1077_" style="fill:#FFFFFF;" d="M125.574,389.23c0.088,0.008,0.178-0.01,0.26-0.057
					c0.088-0.051,9.017-5.009,20.162-0.065c0.225,0.096,0.488-0.001,0.588-0.226c0.1-0.225-0.002-0.488-0.226-0.588
					c-11.576-5.132-20.872,0.053-20.965,0.106c-0.214,0.122-0.287,0.394-0.166,0.608
					C125.302,389.138,125.434,389.217,125.574,389.23z"/>
			</g>
		</g>
	</g>
</g>
<g id="Gear_1_">
	<g id="Gear">
		<path style="fill:#27DEBF;" d="M288.867,126.262c-0.028-0.261-0.109-0.475-0.242-0.631c-0.038-0.052-0.086-0.094-0.134-0.136
			c-0.048-0.042-0.107-0.075-0.166-0.108c-0.117-0.055-0.256-0.091-0.406-0.098c-0.18-0.008-0.391,0.023-0.616,0.113l-12.911,5.151
			c-0.907,0.36-1.806-0.131-2.064-1.073c-0.129-0.476-0.268-0.953-0.417-1.42c-0.123-0.386-0.256-0.772-0.39-1.138
			c-0.196-0.549-0.412-1.089-0.64-1.6c-0.108-0.265-0.227-0.521-0.346-0.776c-0.119-0.245-0.238-0.491-0.358-0.737l-0.01-0.001
			c0,0,0,0,0.001-0.01c-0.119-0.246-0.249-0.482-0.378-0.718c-0.139-0.246-0.236-0.541-0.313-0.845
			c-0.156-0.758-0.088-1.616,0.25-2.231l2.645-4.787l6.553-11.851c0.469-0.86,0.188-1.984-0.639-2.511c0,0-8.946-5.703-8.955-5.714
			c-0.039-0.022-11.369-7.262-11.408-7.284l-8.916-5.692l-0.01-0.001c-0.068-0.053-0.136-0.086-0.205-0.119
			c-0.059-0.023-0.128-0.056-0.187-0.068c-0.02-0.001-0.049-0.012-0.069-0.023c-0.079-0.023-0.148-0.037-0.228-0.05
			c-0.149-0.017-0.289-0.033-0.43-0.019l-0.04-0.002c-0.06,0.007-0.111,0.015-0.171,0.022c-0.02-0.001-0.04,0.008-0.05,0.008l0,0.01
			c-0.03-0.001-0.06-0.003-0.081,0.016c-0.051,0.008-0.091,0.026-0.142,0.034c-0.03,0.009-0.061,0.017-0.092,0.036
			c-0.04,0.008-0.081,0.026-0.122,0.045l-0.001,0.01c-0.02,0.009-0.041,0.018-0.061,0.017c-0.031,0.019-0.051,0.028-0.062,0.037
			c-0.01,0.009-0.02,0.009-0.021,0.019c-0.082,0.036-0.154,0.083-0.216,0.141c-0.01,0-0.021,0.009-0.031,0.019l-0.011,0.01
			c-0.062,0.047-0.124,0.095-0.167,0.153c-0.063,0.057-0.115,0.115-0.158,0.183l-7.983,10.926l-0.01,0l-9.208-5.885l-0.175-0.118
			l-2.784-1.775l-3.787-2.411c-0.029-0.031-0.068-0.053-0.117-0.075c-0.01-0.01-0.02-0.011-0.039-0.012
			c-0.02-0.011-0.039-0.022-0.069-0.023c0,0-0.01-0.01-0.02-0.011c0-0.01-0.01-0.01-0.02-0.011c-0.009-0.01-0.009-0.01-0.02-0.011
			c-0.01,0-0.01,0-0.02-0.001c-0.07-0.013-0.129-0.026-0.199-0.029c-0.01,0-0.01,0-0.02-0.011l-0.07-0.003
			c-0.01,0-0.02-0.001-0.031,0.009c-0.03-0.001-0.06-0.003-0.09,0.006c-0.03-0.001-0.05-0.002-0.08,0.006
			c-0.031,0.009-0.051,0.008-0.081,0.017c-0.122,0.035-0.244,0.079-0.367,0.144l-0.01,0l-14.581,7.57c0,0-0.01,0-0.01,0.01
			c-0.02,0.009-0.031,0.019-0.051,0.028c-0.031,0.009-0.061,0.027-0.083,0.056c-0.02,0.009-0.041,0.018-0.061,0.037
			c-0.072,0.047-0.145,0.094-0.207,0.151c-0.041,0.028-0.072,0.057-0.114,0.085c-0.031,0.029-0.052,0.048-0.074,0.077
			c-0.02,0.009-0.031,0.029-0.052,0.048c-0.052,0.048-0.104,0.096-0.156,0.143c-0.042,0.038-0.074,0.077-0.105,0.115
			c-0.053,0.058-0.106,0.125-0.148,0.184l-0.001,0.01c-0.053,0.068-0.106,0.125-0.149,0.194c-0.074,0.097-0.139,0.204-0.194,0.312
			l-0.01,0.009c-0.013,0.06-0.034,0.099-0.067,0.147c-0.011,0.02-0.022,0.039-0.033,0.059c-0.011,0.02-0.031,0.039-0.032,0.059
			c-0.022,0.039-0.034,0.079-0.045,0.118c-0.045,0.118-0.091,0.246-0.137,0.374c-0.022,0.049-0.035,0.108-0.047,0.158
			c-0.023,0.069-0.026,0.139-0.039,0.208l-2.133,15.761c-0.016,0.139-0.053,0.278-0.089,0.426c-0.013,0.069-0.037,0.148-0.07,0.217
			c-0.023,0.079-0.057,0.148-0.08,0.227c-0.304,0.767-0.83,1.565-1.371,2.021c-0.718,0.609-1.426,1.228-2.125,1.867
			c-0.532,0.477-1.054,0.964-1.577,1.461c-0.523,0.497-1.036,1.005-1.549,1.513c-0.513,0.508-1.027,1.035-1.531,1.563
			c-0.494,0.529-0.998,1.057-1.493,1.605c-0.063,0.067-0.126,0.135-0.199,0.191c-0.073,0.067-0.145,0.124-0.227,0.17
			c-0.083,0.056-0.165,0.113-0.256,0.139c-0.073,0.057-0.144,0.084-0.225,0.11c-0.072,0.037-0.142,0.054-0.213,0.071
			c-0.031,0.019-0.071,0.027-0.102,0.035c-0.051,0.018-0.091,0.026-0.141,0.024c-0.081,0.026-0.172,0.042-0.252,0.049
			c-0.031,0.019-0.051,0.018-0.08,0.006c-0.051,0.018-0.101,0.026-0.151,0.013c-0.061,0.017-0.111,0.015-0.17,0.002
			c-0.15,0.003-0.3-0.013-0.449-0.04l-0.01-0.01c-0.079-0.014-0.159-0.027-0.228-0.06c-0.039-0.012-0.069-0.023-0.108-0.035
			l-8.989-3.593c-0.108-0.045-0.227-0.08-0.336-0.095c-0.11-0.015-0.219-0.03-0.329-0.035l0.034,0.022
			c-0.771-0.043-1.568,0.295-1.979,0.943l-11.265,17.647c-0.069,0.107-0.113,0.228-0.16,0.346c-0.008,0.02-0.02,0.038-0.027,0.058
			c-0.043,0.121-0.068,0.245-0.088,0.372c-0.004,0.027-0.011,0.053-0.014,0.081c-0.006,0.054-0.025,0.106-0.027,0.16
			c-0.005,0.12-0.001,0.24,0.014,0.351c0.014,0.131,0.039,0.252,0.074,0.364c0.06,0.223,0.151,0.427,0.273,0.623
			c0.01,0,0.01,0.01,0.01,0.01c0.037,0.062,0.085,0.124,0.132,0.186c0.057,0.063,0.105,0.115,0.163,0.167l7.042,6.639
			c0.077,0.074,0.144,0.146,0.2,0.229c0.048,0.042,0.076,0.093,0.114,0.145c0.056,0.083,0.112,0.185,0.167,0.288
			c0.036,0.082,0.073,0.163,0.099,0.255c0,0,0.01,0-0.001,0.01c0.009,0.018,0.01,0.039,0.018,0.058
			c0.057,0.154,0.1,0.311,0.119,0.478c0.019,0.031,0.017,0.061,0.016,0.101c0.008,0.05,0.016,0.091,0.014,0.141
			c0.003,0.054,0.002,0.107,0.003,0.161c0.002,0.081-0.004,0.16-0.009,0.24c-0.008,0.105-0.017,0.209-0.038,0.311
			c-0.007,0.036-0.02,0.069-0.029,0.105c-0.027,0.108-0.055,0.216-0.098,0.316c-1.521,3.596-2.795,7.243-3.777,10.883
			c-0.061,0.238-0.172,0.483-0.293,0.738c-0.034,0.079-0.077,0.157-0.131,0.234c-0.001,0.02-0.022,0.049-0.043,0.068
			c-0.044,0.088-0.098,0.176-0.162,0.263c-0.011,0.029-0.022,0.049-0.054,0.078c-0.012,0.039-0.043,0.068-0.075,0.107
			c-0.032,0.049-0.064,0.087-0.106,0.136c-0.075,0.107-0.159,0.203-0.243,0.299c-0.021,0.029-0.043,0.068-0.085,0.096
			c-0.053,0.058-0.105,0.125-0.168,0.183c-0.084,0.086-0.178,0.172-0.271,0.248c-0.104,0.086-0.197,0.161-0.3,0.227l-13.404,8.563
			c-0.103,0.066-0.206,0.141-0.3,0.227c-0.062,0.047-0.115,0.105-0.167,0.163c-0.042,0.038-0.083,0.076-0.126,0.124
			c-0.01,0-0.011,0.01-0.011,0.01c-0.063,0.067-0.126,0.145-0.19,0.222c-0.074,0.097-0.139,0.204-0.204,0.311
			c-0.054,0.088-0.098,0.166-0.151,0.253c-0.044,0.088-0.088,0.176-0.132,0.265c-0.044,0.088-0.078,0.177-0.112,0.275
			c-0.023,0.059-0.046,0.128-0.058,0.188c-0.035,0.109-0.06,0.218-0.084,0.317c-0.026,0.129-0.041,0.258-0.047,0.378l-0.73,16.414
			c-0.005,0.1,0.002,0.19,0.018,0.271c0.008,0.05,0.016,0.101,0.023,0.151c0.007,0.07,0.023,0.141,0.061,0.203
			c-0.001,0.02,0.009,0.03,0.018,0.041c0.036,0.092,0.083,0.164,0.13,0.226c0.01,0.01,0.01,0.01,0.02,0.011
			c0.057,0.073,0.114,0.125,0.183,0.168l0.01,0.01c0.029,0.021,0.058,0.043,0.088,0.054l15.943,10.188l-6.543,11.841
			c-0.033,0.059-0.066,0.127-0.089,0.196c-0.079,0.197-0.128,0.405-0.137,0.615c-0.005,0.12-0.001,0.24,0.024,0.361c0,0,0,0,0,0.01
			c0.014,0.121,0.049,0.232,0.084,0.354l0.01,0.01c0.053,0.153,0.127,0.296,0.211,0.43c0,0.01,0.01,0.01,0.01,0.01
			c0.047,0.072,0.094,0.134,0.152,0.197c0.114,0.125,0.24,0.231,0.386,0.327l21.801,13.952c0.107,0.075,0.215,0.13,0.333,0.175
			l7.145,4.552c0.827,0.527,1.968,0.318,2.544-0.477l7.983-10.916l15.963,10.189c0.01,0,0.02,0.011,0.03,0.011l0-0.01
			c0.068,0.053,0.156,0.097,0.244,0.131c0.276,0.102,0.618,0.057,0.977-0.127l14.591-7.579c0.215-0.111,0.432-0.271,0.631-0.452
			c0.199-0.191,0.389-0.413,0.549-0.646c0.331-0.466,0.565-0.996,0.627-1.484l2.133-15.761c0.133-0.965,0.861-2.254,1.61-2.881
			c2.881-2.424,5.643-5.114,8.264-8.011c0.663-0.731,1.928-1.035,2.832-0.665l8.989,3.593c0.915,0.361,2.073-0.018,2.6-0.845
			l11.265-17.637c0.527-0.827,0.381-2.045-0.339-2.718l-7.042-6.64c-0.711-0.672-0.965-1.945-0.584-2.849
			c1.521-3.596,2.795-7.243,3.777-10.873c0.262-0.949,1.116-2.142,1.941-2.676l13.404-8.563c0.825-0.534,1.529-1.754,1.573-2.733
			l0.73-16.424C288.88,126.433,288.874,126.343,288.867,126.262z M237.88,138.646c-0.712,16.011-12.815,34.976-27.037,42.36
			c-1.684,0.876-3.321,1.545-4.902,2.026c-0.107-0.803-0.184-1.644-0.221-2.511c-0.023-0.343-0.026-0.695-0.03-1.047
			c-0.001-0.2-0.002-0.39-0.002-0.59c0.007-0.38,0.014-0.751,0.032-1.14c0.712-16.011,12.824-34.976,27.046-42.369
			c0.429-0.228,0.856-0.437,1.283-0.628c0.214-0.105,0.427-0.2,0.631-0.286c0.213-0.095,0.426-0.181,0.63-0.267
			c0.794-0.326,1.577-0.615,2.348-0.847C237.881,134.985,237.964,136.748,237.88,138.646z"/>
		<path style="opacity:0.3;" d="M288.867,126.262c-0.028-0.261-0.109-0.475-0.242-0.631c-0.038-0.052-0.086-0.094-0.134-0.136
			c-0.048-0.042-0.107-0.075-0.166-0.108c-0.117-0.055-0.256-0.091-0.406-0.098c-0.18-0.008-0.391,0.023-0.616,0.113l-12.911,5.151
			c-0.907,0.36-1.806-0.131-2.064-1.073c-0.129-0.476-0.268-0.953-0.417-1.42c-0.123-0.386-0.256-0.772-0.39-1.138
			c-0.196-0.549-0.412-1.089-0.64-1.6c-0.108-0.265-0.227-0.521-0.346-0.776c-0.119-0.245-0.238-0.491-0.358-0.737l-0.01-0.001
			c0,0,0,0,0.001-0.01c-0.119-0.246-0.249-0.482-0.378-0.718c-0.139-0.246-0.236-0.541-0.313-0.845
			c-0.156-0.758-0.088-1.616,0.25-2.231l2.645-4.787l6.553-11.851c0.469-0.86,0.188-1.984-0.639-2.511c0,0-8.946-5.703-8.955-5.714
			c-0.039-0.022-11.369-7.262-11.408-7.284l-8.916-5.692l-0.01-0.001c-0.068-0.053-0.136-0.086-0.205-0.119
			c-0.059-0.023-0.128-0.056-0.187-0.068c-0.02-0.001-0.049-0.012-0.069-0.023c-0.079-0.023-0.148-0.037-0.228-0.05
			c-0.149-0.017-0.289-0.033-0.43-0.019l-0.04-0.002c-0.06,0.007-0.111,0.015-0.171,0.022c-0.02-0.001-0.04,0.008-0.05,0.008l0,0.01
			c-0.03-0.001-0.06-0.003-0.081,0.016c-0.051,0.008-0.091,0.026-0.142,0.034c-0.03,0.009-0.061,0.017-0.092,0.036
			c-0.04,0.008-0.081,0.026-0.122,0.045l-0.001,0.01c-0.02,0.009-0.041,0.018-0.061,0.017c-0.031,0.019-0.051,0.028-0.062,0.037
			c-0.01,0.009-0.02,0.009-0.021,0.019c-0.082,0.036-0.154,0.083-0.216,0.141c-0.01,0-0.021,0.009-0.031,0.019l-0.011,0.01
			c-0.062,0.047-0.124,0.095-0.167,0.153c-0.063,0.057-0.115,0.115-0.158,0.183l-7.983,10.926l-0.01,0l-9.208-5.885l-0.175-0.118
			l-2.784-1.775l-3.787-2.411c-0.029-0.031-0.068-0.053-0.117-0.075c-0.01-0.01-0.02-0.011-0.039-0.012
			c-0.02-0.011-0.039-0.022-0.069-0.023c0,0-0.01-0.01-0.02-0.011c0-0.01-0.01-0.01-0.02-0.011c-0.009-0.01-0.009-0.01-0.02-0.011
			c-0.01,0-0.01,0-0.02-0.001c-0.07-0.013-0.129-0.026-0.199-0.029c-0.01,0-0.01,0-0.02-0.011l-0.07-0.003
			c-0.01,0-0.02-0.001-0.031,0.009c-0.03-0.001-0.06-0.003-0.09,0.006c-0.03-0.001-0.05-0.002-0.08,0.006
			c-0.031,0.009-0.051,0.008-0.081,0.017c-0.122,0.035-0.244,0.079-0.367,0.144l-0.01,0l-14.581,7.57c0,0-0.01,0-0.01,0.01
			c-0.02,0.009-0.031,0.019-0.051,0.028c-0.031,0.009-0.061,0.027-0.083,0.056c-0.02,0.009-0.041,0.018-0.061,0.037
			c-0.072,0.047-0.145,0.094-0.207,0.151c-0.041,0.028-0.072,0.057-0.114,0.085c-0.031,0.029-0.052,0.048-0.074,0.077
			c-0.02,0.009-0.031,0.029-0.052,0.048c-0.052,0.048-0.104,0.096-0.156,0.143c-0.042,0.038-0.074,0.077-0.105,0.115
			c-0.053,0.058-0.106,0.125-0.148,0.184l-0.001,0.01c-0.053,0.068-0.106,0.125-0.149,0.194c-0.074,0.097-0.139,0.204-0.194,0.312
			l-0.01,0.009c-0.013,0.06-0.034,0.099-0.067,0.147c-0.011,0.02-0.022,0.039-0.033,0.059c-0.011,0.02-0.031,0.039-0.032,0.059
			c-0.022,0.039-0.034,0.079-0.045,0.118c-0.045,0.118-0.091,0.246-0.137,0.374c-0.022,0.049-0.035,0.108-0.047,0.158
			c-0.023,0.069-0.026,0.139-0.039,0.208l-2.133,15.761c-0.016,0.139-0.053,0.278-0.089,0.426c-0.013,0.069-0.037,0.148-0.07,0.217
			c-0.023,0.079-0.057,0.148-0.08,0.227c-0.304,0.767-0.83,1.565-1.371,2.021c-0.718,0.609-1.426,1.228-2.125,1.867
			c-0.532,0.477-1.054,0.964-1.577,1.461c-0.523,0.497-1.036,1.005-1.549,1.513c-0.513,0.508-1.027,1.035-1.531,1.563
			c-0.494,0.529-0.998,1.057-1.493,1.605c-0.063,0.067-0.126,0.135-0.199,0.191c-0.073,0.067-0.145,0.124-0.227,0.17
			c-0.083,0.056-0.165,0.113-0.256,0.139c-0.073,0.057-0.144,0.084-0.225,0.11c-0.072,0.037-0.142,0.054-0.213,0.071
			c-0.031,0.019-0.071,0.027-0.102,0.035c-0.051,0.018-0.091,0.026-0.141,0.024c-0.081,0.026-0.172,0.042-0.252,0.049
			c-0.031,0.019-0.051,0.018-0.08,0.006c-0.051,0.018-0.101,0.026-0.151,0.013c-0.061,0.017-0.111,0.015-0.17,0.002
			c-0.15,0.003-0.3-0.013-0.449-0.04l-0.01-0.01c-0.079-0.014-0.159-0.027-0.228-0.06c-0.039-0.012-0.069-0.023-0.108-0.035
			l-8.989-3.593c-0.108-0.045-0.227-0.08-0.336-0.095c-0.11-0.015-0.219-0.03-0.329-0.035l0.034,0.022
			c-0.771-0.043-1.568,0.295-1.979,0.943l-11.265,17.647c-0.069,0.107-0.113,0.228-0.16,0.346c-0.008,0.02-0.02,0.038-0.027,0.058
			c-0.043,0.121-0.068,0.245-0.088,0.372c-0.004,0.027-0.011,0.053-0.014,0.081c-0.006,0.054-0.025,0.106-0.027,0.16
			c-0.005,0.12-0.001,0.24,0.014,0.351c0.014,0.131,0.039,0.252,0.074,0.364c0.06,0.223,0.151,0.427,0.273,0.623
			c0.01,0,0.01,0.01,0.01,0.01c0.037,0.062,0.085,0.124,0.132,0.186c0.057,0.063,0.105,0.115,0.163,0.167l7.042,6.639
			c0.077,0.074,0.144,0.146,0.2,0.229c0.048,0.042,0.076,0.093,0.114,0.145c0.056,0.083,0.112,0.185,0.167,0.288
			c0.036,0.082,0.073,0.163,0.099,0.255c0,0,0.01,0-0.001,0.01c0.009,0.018,0.01,0.039,0.018,0.058
			c0.057,0.154,0.1,0.311,0.119,0.478c0.019,0.031,0.017,0.061,0.016,0.101c0.008,0.05,0.016,0.091,0.014,0.141
			c0.003,0.054,0.002,0.107,0.003,0.161c0.002,0.081-0.004,0.16-0.009,0.24c-0.008,0.105-0.017,0.209-0.038,0.311
			c-0.007,0.036-0.02,0.069-0.029,0.105c-0.027,0.108-0.055,0.216-0.098,0.316c-1.521,3.596-2.795,7.243-3.777,10.883
			c-0.061,0.238-0.172,0.483-0.293,0.738c-0.034,0.079-0.077,0.157-0.131,0.234c-0.001,0.02-0.022,0.049-0.043,0.068
			c-0.044,0.088-0.098,0.176-0.162,0.263c-0.011,0.029-0.022,0.049-0.054,0.078c-0.012,0.039-0.043,0.068-0.075,0.107
			c-0.032,0.049-0.064,0.087-0.106,0.136c-0.075,0.107-0.159,0.203-0.243,0.299c-0.021,0.029-0.043,0.068-0.085,0.096
			c-0.053,0.058-0.105,0.125-0.168,0.183c-0.084,0.086-0.178,0.172-0.271,0.248c-0.104,0.086-0.197,0.161-0.3,0.227l-13.404,8.563
			c-0.103,0.066-0.206,0.141-0.3,0.227c-0.062,0.047-0.115,0.105-0.167,0.163c-0.042,0.038-0.083,0.076-0.126,0.124
			c-0.01,0-0.011,0.01-0.011,0.01c-0.063,0.067-0.126,0.145-0.19,0.222c-0.074,0.097-0.139,0.204-0.204,0.311
			c-0.054,0.088-0.098,0.166-0.151,0.253c-0.044,0.088-0.088,0.176-0.132,0.265c-0.044,0.088-0.078,0.177-0.112,0.275
			c-0.023,0.059-0.046,0.128-0.058,0.188c-0.035,0.109-0.06,0.218-0.084,0.317c-0.026,0.129-0.041,0.258-0.047,0.378l-0.73,16.414
			c-0.005,0.1,0.002,0.19,0.018,0.271c0.008,0.05,0.016,0.101,0.023,0.151c0.007,0.07,0.023,0.141,0.061,0.203
			c-0.001,0.02,0.009,0.03,0.018,0.041c0.036,0.092,0.083,0.164,0.13,0.226c0.01,0.01,0.01,0.01,0.02,0.011
			c0.057,0.073,0.114,0.125,0.183,0.168l0.01,0.01c0.029,0.021,0.058,0.043,0.088,0.054l15.943,10.188l-6.543,11.841
			c-0.033,0.059-0.066,0.127-0.089,0.196c-0.079,0.197-0.128,0.405-0.137,0.615c-0.005,0.12-0.001,0.24,0.024,0.361c0,0,0,0,0,0.01
			c0.014,0.121,0.049,0.232,0.084,0.354l0.01,0.01c0.053,0.153,0.127,0.296,0.211,0.43c0,0.01,0.01,0.01,0.01,0.01
			c0.047,0.072,0.094,0.134,0.152,0.197c0.114,0.125,0.24,0.231,0.386,0.327l21.801,13.952c0.107,0.075,0.215,0.13,0.333,0.175
			l7.145,4.552c0.827,0.527,1.968,0.318,2.544-0.477l7.983-10.916l15.963,10.189c0.01,0,0.02,0.011,0.03,0.011l0-0.01
			c0.068,0.053,0.156,0.097,0.244,0.131c0.276,0.102,0.618,0.057,0.977-0.127l14.591-7.579c0.215-0.111,0.432-0.271,0.631-0.452
			c0.199-0.191,0.389-0.413,0.549-0.646c0.331-0.466,0.565-0.996,0.627-1.484l2.133-15.761c0.133-0.965,0.861-2.254,1.61-2.881
			c2.881-2.424,5.643-5.114,8.264-8.011c0.663-0.731,1.928-1.035,2.832-0.665l8.989,3.593c0.915,0.361,2.073-0.018,2.6-0.845
			l11.265-17.637c0.527-0.827,0.381-2.045-0.339-2.718l-7.042-6.64c-0.711-0.672-0.965-1.945-0.584-2.849
			c1.521-3.596,2.795-7.243,3.777-10.873c0.262-0.949,1.116-2.142,1.941-2.676l13.404-8.563c0.825-0.534,1.529-1.754,1.573-2.733
			l0.73-16.424C288.88,126.433,288.874,126.343,288.867,126.262z M237.88,138.646c-0.712,16.011-12.815,34.976-27.037,42.36
			c-1.684,0.876-3.321,1.545-4.902,2.026c-0.107-0.803-0.184-1.644-0.221-2.511c-0.023-0.343-0.026-0.695-0.03-1.047
			c-0.001-0.2-0.002-0.39-0.002-0.59c0.007-0.38,0.014-0.751,0.032-1.14c0.712-16.011,12.824-34.976,27.046-42.369
			c0.429-0.228,0.856-0.437,1.283-0.628c0.214-0.105,0.427-0.2,0.631-0.286c0.213-0.095,0.426-0.181,0.63-0.267
			c0.794-0.326,1.577-0.615,2.348-0.847C237.881,134.985,237.964,136.748,237.88,138.646z"/>
		<path style="opacity:0.05;" d="M182.002,200.797l-6.355,2.528c-0.433,0.166-0.811,0.161-1.125-0.043l-4.317-2.753l-6.544,11.841
			c-0.475,0.859-0.189,1.982,0.638,2.51l21.807,13.962c0.414,0.264,0.907,0.342,1.368,0.255l5.975-20.994L182.002,200.797z"/>
		<path style="fill:#27DEBF;" d="M195.684,160.095l-20.381-13.038c0.013-0.73-0.254-1.493-0.753-1.965l-7.042-6.63
			c-0.365-0.346-0.583-0.837-0.641-1.34l20.371,13.028c0.058,0.493,0.277,0.963,0.633,1.299l7.042,6.639
			C195.422,158.562,195.707,159.355,195.684,160.095z"/>
		<path style="opacity:0.4;" d="M195.684,160.095l-20.381-13.038c0.013-0.73-0.254-1.493-0.753-1.965l-7.042-6.63
			c-0.365-0.346-0.583-0.837-0.641-1.34l20.371,13.028c0.058,0.493,0.277,0.963,0.633,1.299l7.042,6.639
			C195.422,158.562,195.707,159.355,195.684,160.095z"/>
		<path style="fill:#27DEBF;" d="M212.095,133.868c-0.568,0.175-1.19,0.187-1.711-0.016l-8.989-3.593
			c-0.206-0.089-0.425-0.129-0.654-0.139l-0.01,0l-20.353-12.987c0.22,0.01,0.448,0.05,0.655,0.129l8.989,3.593
			c0.512,0.203,1.133,0.19,1.701,0.016L212.095,133.868z"/>
		<path style="opacity:0.2;" d="M212.095,133.868c-0.568,0.175-1.19,0.187-1.711-0.016l-8.989-3.593
			c-0.206-0.089-0.425-0.129-0.654-0.139l-0.01,0l-20.353-12.987c0.22,0.01,0.448,0.05,0.655,0.129l8.989,3.593
			c0.512,0.203,1.133,0.19,1.701,0.016L212.095,133.868z"/>
		<path style="fill:#27DEBF;" d="M225.492,105.665c-0.133,0.284-0.226,0.581-0.268,0.859l-2.122,15.761
			c-0.042,0.268-0.126,0.575-0.249,0.87l-20.363-12.998c0.113-0.295,0.207-0.601,0.239-0.87l2.133-15.761
			c0.032-0.279,0.135-0.565,0.268-0.859L225.492,105.665z"/>
		<path style="opacity:0.2;" d="M225.492,105.665c-0.133,0.284-0.226,0.581-0.268,0.859l-2.122,15.761
			c-0.042,0.268-0.126,0.575-0.249,0.87l-20.363-12.998c0.113-0.295,0.207-0.601,0.239-0.87l2.133-15.761
			c0.032-0.279,0.135-0.565,0.268-0.859L225.492,105.665z"/>
		<g>
			<path style="fill:#27DEBF;" d="M272.374,115.218l15.954,10.169c-0.274-0.132-0.624-0.138-1.022,0.025l-12.911,5.141
				c-0.907,0.36-1.806-0.13-2.064-1.073c-0.636-2.361-1.491-4.501-2.548-6.4c-0.472-0.862-0.522-2.215-0.053-3.075L272.374,115.218z
				"/>
			<path style="fill:#27DEBF;" d="M288.406,125.431c0,0-0.01-0.001-0.02-0.001l-0.01-0.011L288.406,125.431z"/>
			<path style="fill:#27DEBF;" d="M269.333,95.143c-0.829-0.497-1.949-0.287-2.515,0.499l-11.213,15.347
				c-0.202,0.271-0.483,0.509-0.802,0.705l-5.743-3.669l-5.353-3.421l-0.407-7.285c-0.028-0.482-0.223-0.831-0.526-1.004
				c-0.02-0.011-0.039-0.032-0.068-0.043l-4.244-2.701l7.993-10.925c0.575-0.775,1.686-0.996,2.514-0.489l8.945,5.713
				L269.333,95.143z"/>
			<path style="fill:#27DEBF;" d="M190.781,173.54c-0.307,0.387-0.663,0.731-1.003,0.946l-13.394,8.573
				c-0.36,0.224-0.707,0.589-0.966,1.008l-20.342-13.007c0.268-0.409,0.585-0.775,0.935-0.999l13.404-8.563
				c0.34-0.225,0.687-0.58,1.004-0.976L190.781,173.54z"/>
			<path style="fill:#27DEBF;" d="M200.4,130.135c-0.634,0.072-1.26,0.414-1.604,0.96l-11.265,17.647
				c-0.269,0.419-0.362,0.925-0.293,1.408l-20.361-13.028c-0.059-0.473,0.034-0.979,0.292-1.378l11.255-17.647
				c0.376-0.584,1.063-0.934,1.755-0.963L200.4,130.135z"/>
			<path style="fill:#27DEBF;" d="M242.706,96.271c-0.295-0.133-0.675-0.12-1.085,0.092l-5.963,3.098l-8.618,4.481
				c-0.625,0.323-1.216,1.007-1.548,1.723l-20.372-12.998c0.343-0.725,0.933-1.4,1.548-1.713l14.591-7.579
				c0.246-0.129,0.499-0.188,0.719-0.178c0.16,0.007,0.298,0.043,0.425,0.129l6.678,4.241l0.175,0.118l9.208,5.885L242.706,96.271z"
				/>
		</g>
		<path style="opacity:0.1;" d="M272.374,115.218l15.954,10.169c-0.274-0.132-0.624-0.138-1.022,0.025l-12.911,5.141
			c-0.907,0.36-1.806-0.13-2.064-1.073c-0.636-2.361-1.491-4.501-2.548-6.4c-0.472-0.862-0.522-2.215-0.053-3.075L272.374,115.218z"
			/>
		<path style="opacity:0.2;" d="M269.333,95.143c-0.829-0.497-1.949-0.287-2.515,0.499l-11.213,15.347
			c-0.202,0.271-0.483,0.509-0.802,0.705l-5.743-3.669l-5.353-3.421l-0.407-7.285c-0.028-0.482-0.223-0.831-0.526-1.004
			c-0.02-0.011-0.039-0.032-0.068-0.043l-4.244-2.701l7.993-10.925c0.575-0.775,1.686-0.996,2.514-0.489l8.945,5.713L269.333,95.143
			z"/>
		<path style="opacity:0.2;" d="M190.781,173.54c-0.307,0.387-0.663,0.731-1.003,0.946l-13.394,8.573
			c-0.36,0.224-0.707,0.589-0.966,1.008l-20.342-13.007c0.268-0.409,0.585-0.775,0.935-0.999l13.404-8.563
			c0.34-0.225,0.687-0.58,1.004-0.976L190.781,173.54z"/>
		<path style="opacity:0.1;" d="M200.4,130.135c-0.634,0.072-1.26,0.414-1.604,0.96l-11.265,17.647
			c-0.269,0.419-0.362,0.925-0.293,1.408l-20.361-13.028c-0.059-0.473,0.034-0.979,0.292-1.378l11.255-17.647
			c0.376-0.584,1.063-0.934,1.755-0.963L200.4,130.135z"/>
		<path style="opacity:0.1;" d="M242.706,96.271c-0.295-0.133-0.675-0.12-1.085,0.092l-5.963,3.098l-8.618,4.481
			c-0.625,0.323-1.216,1.007-1.548,1.723l-20.372-12.998c0.343-0.725,0.933-1.4,1.548-1.713l14.591-7.579
			c0.246-0.129,0.499-0.188,0.719-0.178c0.16,0.007,0.298,0.043,0.425,0.129l6.678,4.241l0.175,0.118l9.208,5.885L242.706,96.271z"
			/>
		<path style="opacity:0.15;" d="M193.448,208.103l-11.447-7.306l6.552-2.611c0.917-0.37,1.817,0.121,2.065,1.063
			c0.636,2.361,1.491,4.501,2.548,6.41C193.537,206.325,193.654,207.301,193.448,208.103z"/>
		<path style="opacity:0.15;" d="M220.087,232.361l-15.983-10.19l3.24-4.42c0.586-0.795,1.84-1.32,2.818-1.246
			c2.176,0.147,4.473,0.029,6.874-0.395c0.968-0.167,1.792,0.45,1.839,1.423l0.774,13.878
			C219.669,231.841,219.835,232.169,220.087,232.361z"/>
		<path id="XMLID_610_" style="fill:#27DEBF;" d="M288.867,126.262c-0.028-0.261-0.109-0.475-0.242-0.631
			c-0.038-0.052-0.086-0.094-0.134-0.136c-0.048-0.042-0.107-0.075-0.166-0.108c-0.117-0.055-0.256-0.091-0.406-0.098
			c-0.18-0.008-0.391,0.023-0.616,0.113l-12.911,5.151c-0.907,0.36-1.806-0.131-2.064-1.073c-0.129-0.476-0.268-0.953-0.417-1.42
			c-0.123-0.386-0.256-0.772-0.39-1.138c-0.196-0.549-0.412-1.089-0.64-1.6c-0.108-0.265-0.227-0.521-0.346-0.776
			c-0.119-0.245-0.238-0.491-0.358-0.737l-0.01-0.001c0,0,0,0,0.001-0.01c-0.119-0.246-0.249-0.482-0.378-0.718
			c-0.139-0.246-0.236-0.541-0.313-0.845c-0.156-0.758-0.088-1.616,0.25-2.231l2.645-4.787l6.553-11.851
			c0.469-0.86,0.188-1.984-0.639-2.511l-8.926-5.692c-0.009-0.01-0.02-0.011-0.029-0.021c-0.039-0.022-0.068-0.043-0.108-0.055
			c-0.029-0.021-0.049-0.032-0.078-0.044c-0.01,0-0.019-0.011-0.03-0.011c-0.068-0.033-0.128-0.056-0.197-0.079
			c-0.01-0.001-0.02-0.001-0.02-0.001c-0.03-0.011-0.069-0.023-0.099-0.024c-0.039-0.012-0.069-0.023-0.109-0.025
			c-0.07-0.013-0.149-0.027-0.229-0.03c-0.54-0.024-1.099,0.181-1.487,0.584c-0.063,0.057-0.115,0.115-0.158,0.183l-4.114,5.633
			l-7.099,9.714c-0.053,0.068-0.106,0.136-0.169,0.193c-0.042,0.058-0.095,0.106-0.146,0.144c-0.147,0.144-0.312,0.267-0.487,0.369
			c-0.617,0.373-1.377,0.579-2.016,0.541c-0.758-0.054-1.538-0.078-2.33-0.064c-1.463,0.025-2.971,0.178-4.544,0.449
			c-0.968,0.167-1.782-0.44-1.839-1.423l-0.368-6.593l-0.407-7.285c-0.005-0.12-0.03-0.232-0.055-0.333
			c-0.025-0.111-0.061-0.203-0.108-0.285c-0.037-0.072-0.084-0.144-0.132-0.196c-0.009-0.02-0.029-0.031-0.038-0.042
			c-0.058-0.053-0.126-0.106-0.194-0.149c-0.029-0.021-0.049-0.032-0.068-0.043c-0.01,0-0.01-0.01-0.01-0.01
			c-0.05-0.012-0.109-0.035-0.158-0.047c-0.268-0.062-0.579-0.026-0.908,0.15l-14.591,7.579c-0.184,0.092-0.36,0.214-0.527,0.367
			c-0.052,0.038-0.104,0.086-0.146,0.134c-0.188,0.182-0.357,0.375-0.507,0.598c-0.085,0.116-0.16,0.233-0.236,0.36
			c-0.044,0.088-0.088,0.176-0.132,0.264c-0.067,0.147-0.123,0.285-0.169,0.433c-0.047,0.148-0.083,0.287-0.099,0.426l-1.51,11.224
			l-0.612,4.537c-0.028,0.169-0.066,0.347-0.124,0.525c-0.025,0.119-0.07,0.227-0.126,0.345c-0.294,0.768-0.82,1.565-1.361,2.021
			c-2.881,2.424-5.653,5.114-8.274,8.01c-0.284,0.308-0.685,0.55-1.121,0.681c-0.163,0.053-0.325,0.096-0.496,0.108
			c-0.081,0.016-0.161,0.023-0.241,0.019c-0.341,0.025-0.679-0.03-0.975-0.144l-8.979-3.592c-0.098-0.044-0.207-0.069-0.306-0.094
			c-0.089-0.024-0.178-0.038-0.269-0.032c-0.029-0.011-0.069-0.013-0.099-0.014c-0.1-0.004-0.19,0.001-0.291,0.017
			c-0.654,0.061-1.289,0.403-1.644,0.958l-2.281,3.572l-6.683,10.493l-2.291,3.582c-0.355,0.555-0.408,1.283-0.185,1.904
			c0.107,0.305,0.275,0.583,0.515,0.804l7.052,6.64c0.711,0.672,0.964,1.945,0.584,2.849c-1.521,3.596-2.795,7.243-3.787,10.872
			c-0.252,0.95-1.117,2.153-1.941,2.676l-3.843,2.462l-9.551,6.112c-0.824,0.524-1.529,1.744-1.572,2.723l-0.731,16.424
			c-0.044,0.979,0.655,1.481,1.572,1.121l12.911-5.141c0.907-0.37,1.807,0.12,2.065,1.063c0.402,1.529,0.909,2.973,1.499,4.321
			c0.328,0.725,0.668,1.421,1.038,2.088c0.473,0.852,0.532,2.216,0.053,3.075l-9.188,16.628c-0.479,0.86-0.188,1.984,0.639,2.511
			l8.916,5.692c0.827,0.527,1.968,0.318,2.544-0.477l7.983-10.916l3.24-4.42c0.576-0.795,1.83-1.32,2.808-1.246
			c2.176,0.147,4.473,0.029,6.884-0.395c0.958-0.168,1.782,0.45,1.839,1.423l0.774,13.878c0.021,0.421,0.168,0.728,0.399,0.929
			c0.01,0.01,0.01,0.01,0.019,0.021c0.01,0,0.02,0.011,0.03,0.011c0.068,0.053,0.156,0.097,0.245,0.121
			c0.276,0.102,0.618,0.057,0.977-0.127l14.591-7.579c0.215-0.111,0.432-0.271,0.631-0.452c0.199-0.191,0.389-0.413,0.549-0.646
			c0.331-0.466,0.565-0.996,0.627-1.484l2.133-15.761c0.133-0.965,0.861-2.254,1.61-2.881c2.881-2.424,5.643-5.114,8.264-8.011
			c0.663-0.731,1.928-1.035,2.832-0.665l8.989,3.593c0.915,0.361,2.073-0.018,2.6-0.845l11.265-17.637
			c0.527-0.827,0.381-2.045-0.339-2.718l-7.042-6.64c-0.711-0.672-0.965-1.945-0.584-2.849c1.521-3.596,2.795-7.243,3.777-10.873
			c0.262-0.949,1.116-2.142,1.941-2.676l13.404-8.563c0.825-0.534,1.529-1.754,1.573-2.733l0.73-16.424
			C288.88,126.433,288.874,126.343,288.867,126.262z M254.051,165.051c-0.688,1.776-1.489,3.547-2.383,5.276
			c-1.762,3.478-3.898,6.826-6.308,9.895c-1.18,1.516-2.433,2.963-3.739,4.322c-3.491,3.658-7.373,6.709-11.432,8.811
			c-3.855,1.997-7.463,2.958-10.677,2.958c-7.227-0.017-12.394-4.849-13.569-13.28c-0.107-0.803-0.184-1.644-0.221-2.511
			c-0.023-0.343-0.026-0.695-0.03-1.047c-0.001-0.2-0.002-0.39-0.002-0.59c0.007-0.38,0.014-0.751,0.032-1.14
			c0.712-16.011,12.824-34.976,27.046-42.369c0.429-0.228,0.856-0.437,1.283-0.628c0.214-0.105,0.427-0.2,0.631-0.286
			c0.213-0.095,0.426-0.181,0.63-0.267c0.794-0.326,1.577-0.615,2.348-0.847c8.146-2.481,14.695,0.159,17.741,6.713
			c1.354,2.904,2.018,6.585,1.825,10.922C257.022,155.54,255.896,160.34,254.051,165.051z"/>
	</g>
</g>
<g id="Check_Mark_1_">
	<g id="Check_Mark">
		<g>
			<g>
				<path id="XMLID_1063_" style="fill:#27DEBF;" d="M123.302,150.636l-0.798,17.945c11.075-6.173,21.524-15.477,30.418-26.502
					l-8.712-9.637C138.049,139.956,130.889,146.295,123.302,150.636z"/>
				<path id="XMLID_1047_" style="opacity:0.8;fill:#FFFFFF;" d="M123.302,150.636l-0.798,17.945
					c11.075-6.173,21.524-15.477,30.418-26.502l-8.712-9.637C138.049,139.956,130.889,146.295,123.302,150.636z"/>
			</g>
			<polygon style="fill:#27DEBF;" points="112.176,143.506 111.378,161.452 122.504,168.582 123.302,150.636 			"/>
			<polygon style="opacity:0.65;fill:#FFFFFF;" points="112.176,143.506 111.378,161.452 122.504,168.582 123.302,150.636 			"/>
			<polygon style="fill:#27DEBF;" points="112.176,143.506 111.378,161.452 122.504,168.582 123.302,150.636 			"/>
			<polygon style="opacity:0.05;" points="112.176,143.506 111.378,161.452 122.504,168.582 123.302,150.636 			"/>
			<path id="XMLID_1021_" style="fill:#27DEBF;" d="M123.302,150.636c7.586-4.341,14.746-10.68,20.907-18.194l-11.126-7.13
				c-6.161,7.514-13.321,13.853-20.907,18.194L123.302,150.636z"/>
			<path id="XMLID_990_" style="opacity:0.6;fill:#FFFFFF;" d="M123.302,150.636c7.586-4.341,14.746-10.68,20.907-18.194
				l-11.126-7.13c-6.161,7.514-13.321,13.853-20.907,18.194L123.302,150.636z"/>
		</g>
		<g>
			<g>
				<path id="XMLID_889_" style="fill:#27DEBF;" d="M99.09,155.884l-10.002,19.36c8.311,2.086,18.406,0.717,29.444-4.598
					l0.798-17.945C111.779,156.223,104.858,157.2,99.09,155.884z"/>
			</g>
			<path id="XMLID_888_" style="opacity:0.65;fill:#FFFFFF;" d="M99.09,155.884l-10.002,19.36
				c8.311,2.086,18.406,0.717,29.444-4.598l0.798-17.945C111.779,156.223,104.858,157.2,99.09,155.884z"/>
			<polygon style="fill:#27DEBF;" points="87.964,148.754 77.962,168.114 89.088,175.244 99.09,155.884 			"/>
			<polygon style="opacity:0.55;fill:#FFFFFF;" points="87.964,148.754 77.962,168.114 89.088,175.244 99.09,155.884 			"/>
			<polygon style="fill:#27DEBF;" points="87.964,148.754 77.962,168.114 89.088,175.244 99.09,155.884 			"/>
			<polygon style="opacity:0.1;" points="87.964,148.754 77.962,168.114 89.088,175.244 99.09,155.884 			"/>
			<path style="fill:#27DEBF;" d="M108.204,145.57c-7.551,3.523-14.472,4.5-20.24,3.184l11.126,7.13
				c5.769,1.316,12.689,0.339,20.24-3.184L108.204,145.57z"/>
			<path style="opacity:0.55;fill:#FFFFFF;" d="M108.204,145.57c-7.551,3.523-14.472,4.5-20.24,3.184l11.126,7.13
				c5.769,1.316,12.689,0.339,20.24-3.184L108.204,145.57z"/>
		</g>
		<g>
			<g>
				<path id="XMLID_882_" style="fill:#27DEBF;" d="M84.165,141.819L68.75,155.249c3.188,9.479,9.242,15.994,17.255,19.011
					l9.992-19.34C90.558,152.73,86.449,148.233,84.165,141.819z"/>
				<path id="XMLID_881_" style="opacity:0.55;fill:#FFFFFF;" d="M84.165,141.819L68.75,155.249
					c3.188,9.479,9.242,15.994,17.255,19.011l9.992-19.34C90.558,152.73,86.449,148.233,84.165,141.819z"/>
			</g>
			<path style="fill:#27DEBF;" d="M68.75,155.249l-11.126-7.13c2.473,7.354,6.672,12.924,12.171,16.46l11.126,7.13
				C75.422,168.172,71.223,162.603,68.75,155.249z"/>
			<path style="opacity:0.45;fill:#FFFFFF;" d="M68.75,155.249l-11.126-7.13c2.473,7.354,6.672,12.924,12.171,16.46l11.126,7.13
				C75.422,168.172,71.223,162.603,68.75,155.249z"/>
			<polygon style="fill:#27DEBF;" points="73.04,134.689 57.624,148.119 68.75,155.249 84.165,141.819 			"/>
			<polygon style="opacity:0.55;fill:#FFFFFF;" points="73.04,134.689 57.624,148.119 68.75,155.249 84.165,141.819 			"/>
			<polygon style="fill:#27DEBF;" points="73.04,134.689 57.624,148.119 68.75,155.249 84.165,141.819 			"/>
			<polygon style="opacity:0.1;" points="73.04,134.689 57.624,148.119 68.75,155.249 84.165,141.819 			"/>
		</g>
		<g>
			<g>
				<path id="XMLID_867_" style="fill:#27DEBF;" d="M147.537,128.143l8.703,9.628c8.667-11.683,15.6-24.944,19.802-38.263
					l-14.922,2.332C158.145,110.985,153.432,120.065,147.537,128.143z"/>
				<path id="XMLID_866_" style="opacity:0.85;fill:#FFFFFF;" d="M147.537,128.143l8.703,9.628
					c8.667-11.683,15.6-24.944,19.802-38.263l-14.922,2.332C158.145,110.985,153.432,120.065,147.537,128.143z"/>
			</g>
			<polygon style="fill:#27DEBF;" points="164.917,92.377 149.995,94.709 161.121,101.839 176.042,99.507 			"/>
			<polygon style="opacity:0.75;fill:#FFFFFF;" points="164.917,92.377 149.995,94.709 161.121,101.839 176.042,99.507 			"/>
			<polygon style="fill:#27DEBF;" points="164.917,92.377 149.995,94.709 161.121,101.839 176.042,99.507 			"/>
			<path style="fill:#27DEBF;" d="M149.995,94.709c-2.976,9.147-7.689,18.226-13.584,26.304l11.126,7.13
				c5.895-8.077,10.608-17.157,13.584-26.304L149.995,94.709z"/>
			<path style="opacity:0.65;fill:#FFFFFF;" d="M149.995,94.709c-2.976,9.147-7.689,18.226-13.584,26.304l11.126,7.13
				c5.895-8.077,10.608-17.157,13.584-26.304L149.995,94.709z"/>
			<polygon style="fill:#27DEBF;" points="147.537,128.143 136.411,121.013 145.114,130.64 156.24,137.77 			"/>
			<polygon style="opacity:0.75;fill:#FFFFFF;" points="147.537,128.143 136.411,121.013 145.114,130.64 156.24,137.77 			"/>
			<polygon style="fill:#27DEBF;" points="147.537,128.143 136.411,121.013 145.114,130.64 156.24,137.77 			"/>
		</g>
		<g>
			<g>
				<path style="fill:#27DEBF;" d="M180.463,75.746c-0.274,6.148-1.329,12.492-3.018,18.874l-14.908,2.33
					c1.119-4.375,1.847-8.737,2.034-12.948c0.123-2.766,0.007-5.348-0.304-7.749l12.85-23.042c0.322,0.754,0.607,1.546,0.883,2.344
					c0,0,0.625,1.937,1.021,3.634C180.208,64.067,180.736,69.599,180.463,75.746z"/>
				<path style="opacity:0.9;fill:#FFFFFF;" d="M180.463,75.746c-0.274,6.148-1.329,12.492-3.018,18.874l-14.908,2.33
					c1.119-4.375,1.847-8.737,2.034-12.948c0.123-2.766,0.007-5.348-0.304-7.749l12.85-23.042c0.322,0.754,0.607,1.546,0.883,2.344
					c0,0,0.625,1.937,1.021,3.634C180.208,64.067,180.736,69.599,180.463,75.746z"/>
			</g>
			<polygon style="fill:#27DEBF;" points="165.991,46.081 153.141,69.123 164.267,76.253 177.117,53.211 			"/>
			<polygon style="opacity:0.85;fill:#FFFFFF;" points="165.991,46.081 153.141,69.123 164.267,76.253 177.117,53.211 			"/>
			<polygon style="fill:#27DEBF;" points="165.991,46.081 153.141,69.123 164.267,76.253 177.117,53.211 			"/>
			<path style="fill:#27DEBF;" d="M164.267,76.253l-11.126-7.13c0.311,2.401,0.427,4.983,0.304,7.749
				c-0.187,4.211-0.915,8.573-2.034,12.948l11.126,7.13c1.119-4.375,1.847-8.737,2.034-12.948
				C164.695,81.236,164.578,78.654,164.267,76.253z"/>
			<path style="opacity:0.7;fill:#FFFFFF;" d="M164.644,76.493l-11.126-7.13c0.311,2.401,0.427,4.983,0.304,7.749
				c-0.187,4.211-0.915,8.573-2.034,12.948l11.126,7.13c1.119-4.375,1.847-8.737,2.034-12.948
				C165.071,81.476,164.955,78.894,164.644,76.493z"/>
		</g>
		<g>
			<path style="fill:#263238;" d="M175.585,42.381c-0.095-0.061-5.303-3.735-5.303-3.735c-0.096-0.061-0.199-0.116-0.311-0.161
				l-10.384-4.291c-1.021-0.422-2.285,0.018-2.823,0.983l-41.925,75.168l-16.665-9.163c-0.967-0.533-2.217-0.2-2.791,0.744
				l-8.182,12.953c-0.552,0.907-0.279,2.047,0.602,2.608c0.036,0.023,4.477,3.21,5.306,3.738c0.035,0.023,0.072,0.044,0.109,0.065
				l29.017,15.993c0.967,0.533,2.188,0.183,2.726-0.781c6.593-11.82,44.597-79.95,51.19-91.769
				C176.631,43.872,176.372,42.884,175.585,42.381z"/>
			<path style="fill:#455A64;" d="M175.585,42.381c-0.095-0.061-5.303-3.735-5.303-3.735c-0.096-0.061-0.199-0.116-0.311-0.161
				l-10.384-4.291c-0.628-0.26-1.347-0.191-1.934,0.124l18.103,11.121c0.14-0.252,0.274-0.491,0.394-0.706
				C176.631,43.872,176.372,42.884,175.585,42.381z"/>
			<path style="fill:#37474F;" d="M175.277,42.221l-10.384-4.291c-1.021-0.422-2.285,0.018-2.823,0.983l-41.925,75.168
				l-16.665-9.163c-0.968-0.533-2.217-0.2-2.791,0.744l-8.182,12.953c-0.574,0.944-0.255,2.141,0.712,2.675l29.017,15.993
				c0.967,0.534,2.188,0.183,2.726-0.781c6.593-11.82,44.597-79.95,51.189-91.769C176.689,43.768,176.298,42.643,175.277,42.221z"/>
			<path style="fill:#455A64;" d="M114.842,110.344l5.289,3.741l-16.65-9.167c-0.488-0.272-1.047-0.317-1.554-0.179l-5.299-3.741
				c0.507-0.138,1.054-0.083,1.543,0.179L114.842,110.344z"/>
		</g>
		<g>
			<g>
				<path id="XMLID_865_" style="fill:#27DEBF;" d="M82.178,126.806c0.188-4.218,0.915-8.57,2.029-12.946l-14.908,2.33
					c-1.688,6.379-2.738,12.726-3.011,18.872c-0.273,6.145,0.248,11.676,1.435,16.562l15.401-13.417
					C82.356,134.808,81.991,131.023,82.178,126.806z"/>
			</g>
			<path id="XMLID_864_" style="fill:#27DEBF;" d="M82.178,126.806c0.188-4.218,0.915-8.57,2.029-12.946l-14.908,2.33
				c-1.688,6.379-2.738,12.726-3.011,18.872c-0.273,6.145,0.248,11.676,1.435,16.562l15.401-13.417
				C82.356,134.808,81.991,131.023,82.178,126.806z"/>
			<polygon style="fill:#27DEBF;" points="73.082,106.729 58.174,109.06 69.299,116.189 84.208,113.859 			"/>
			<polygon style="opacity:0.15;" points="73.082,106.729 58.174,109.06 69.299,116.189 84.208,113.859 			"/>
			<path style="fill:#27DEBF;" d="M69.299,116.189l-11.126-7.13c-1.688,6.379-2.738,12.726-3.011,18.871
				c-0.273,6.145,0.249,11.676,1.435,16.562l11.126,7.13c-1.187-4.885-1.709-10.417-1.435-16.562
				C66.561,128.916,67.612,122.568,69.299,116.189z"/>
			<path style="opacity:0.3;fill:#FFFFFF;" d="M69.299,116.189l-11.126-7.13c-1.688,6.379-2.738,12.726-3.011,18.871
				c-0.273,6.145,0.249,11.676,1.435,16.562l11.126,7.13c-1.187-4.885-1.709-10.417-1.435-16.562
				C66.561,128.916,67.612,122.568,69.299,116.189z"/>
		</g>
		<g>
			<g>
				<path id="XMLID_862_" style="fill:#27DEBF;" d="M147.65,54.938l10.021-19.397c-8.64-2.131-18.891-0.423-29.457,4.648
					l-0.796,17.903C134.665,54.722,141.663,53.599,147.65,54.938z"/>
				<path id="XMLID_859_" style="opacity:0.3;" d="M147.65,54.938l10.021-19.397c-8.64-2.131-18.891-0.423-29.457,4.648
					l-0.796,17.903C134.665,54.722,141.663,53.599,147.65,54.938z"/>
			</g>
			<polygon style="fill:#27DEBF;" points="117.089,33.06 116.293,50.963 127.418,58.092 128.215,40.189 			"/>
			<polygon style="opacity:0.42;" points="117.089,33.06 116.293,50.963 127.418,58.092 128.215,40.189 			"/>
			<path id="XMLID_857_" style="fill:#27DEBF;" d="M128.215,40.189c10.566-5.071,20.817-6.78,29.457-4.648l-11.126-7.13
				c-8.64-2.131-18.891-0.423-29.457,4.648L128.215,40.189z"/>
			<path id="XMLID_851_" style="opacity:0.2;" d="M128.215,40.189c10.566-5.071,20.817-6.78,29.457-4.648l-11.126-7.13
				c-8.64-2.131-18.891-0.423-29.457,4.648L128.215,40.189z"/>
		</g>
		<g>
			<g>
				<path id="XMLID_850_" style="fill:#27DEBF;" d="M123.445,60.171l0.798-17.945c-11.075,6.173-21.523,15.477-30.418,26.501
					l8.712,9.638C108.699,70.851,115.858,64.512,123.445,60.171z"/>
				<path id="XMLID_849_" style="opacity:0.2;" d="M123.445,60.171l0.798-17.945c-11.075,6.173-21.523,15.477-30.418,26.501
					l8.712,9.638C108.699,70.851,115.858,64.512,123.445,60.171z"/>
			</g>
			<path style="fill:#27DEBF;" d="M113.118,35.096C102.042,41.268,91.594,50.572,82.7,61.597l11.126,7.13
				c8.895-11.025,19.343-20.329,30.418-26.501L113.118,35.096z"/>
			<path style="opacity:0.1;" d="M113.118,35.096C102.042,41.268,91.594,50.572,82.7,61.597l11.126,7.13
				c8.895-11.025,19.343-20.329,30.418-26.501L113.118,35.096z"/>
			<polygon style="fill:#27DEBF;" points="93.826,68.727 82.7,61.597 91.412,71.235 102.538,78.365 			"/>
			<polygon style="opacity:0.35;" points="93.826,68.727 82.7,61.597 91.412,71.235 102.538,78.365 			"/>
		</g>
		<g>
			<g>
				<path id="XMLID_848_" style="fill:#27DEBF;" d="M99.211,82.664l-8.704-9.628C81.84,84.72,74.907,97.981,70.705,111.3
					l14.922-2.332C88.603,99.822,93.315,90.742,99.211,82.664z"/>
				<path id="XMLID_846_" style="opacity:0.1;" d="M99.211,82.664l-8.704-9.628C81.84,84.72,74.907,97.981,70.705,111.3
					l14.922-2.332C88.603,99.822,93.315,90.742,99.211,82.664z"/>
			</g>
			<path id="XMLID_845_" style="fill:#27DEBF;" d="M70.705,111.3c4.202-13.319,11.136-26.58,19.802-38.264l-11.126-7.13
				c-8.667,11.683-15.6,24.945-19.802,38.264L70.705,111.3z"/>
		</g>
	</g>
</g>
<g id="Clock">
	<g id="Clock_3_">
		<path id="XMLID_1074_" style="fill:#37474F;" d="M141.298,200.943l0.002-0.003l-0.08-0.047c-0.003-0.002-0.006-0.003-0.009-0.005
			l-19.255-12.604c-0.006-0.004-0.012-0.007-0.019-0.011l-0.113-0.066l-0.003,0.005c-9.033-5.226-21.526-4.53-35.371,3.338
			c-27.815,15.806-50.54,54.553-50.758,86.544c-0.109,15.946,5.396,27.2,14.388,32.524l-0.002,0.003l0.08,0.047
			c0.003,0.002,0.007,0.004,0.01,0.006l19.26,12.607c0.003,0.002,0.006,0.003,0.008,0.005l0.095,0.055l0.002-0.004
			c9.035,5.24,21.538,4.549,35.395-3.325c27.814-15.806,50.54-54.553,50.758-86.544C155.795,217.521,150.29,206.267,141.298,200.943
			z"/>
		<path id="XMLID_1073_" style="fill:#263238;" d="M68.771,322.877l-18.597-12.207c-0.015,0-0.015,0-0.015,0l-0.087-0.059
			c-8.987-5.335-14.489-16.59-14.38-32.514c0.098-14.267,4.68-29.87,12.173-44.174l19.263,12.603
			c-7.508,14.304-12.075,29.907-12.173,44.174C54.849,306.306,60.12,317.413,68.771,322.877z"/>
		
			<ellipse id="XMLID_1072_" transform="matrix(0.5059 -0.8626 0.8626 0.5059 -174.0321 220.3452)" style="fill:#455A64;" cx="105.324" cy="262.086" rx="70.945" ry="40.96"/>
		<path id="XMLID_1071_" style="fill:#FAFAFA;" d="M82.546,316.539c-15.875-0.109-17.467-18.054-17.414-25.764
			c0.193-28.216,21.082-63.831,45.613-77.77c6.243-3.549,12.245-5.406,17.356-5.371c15.877,0.109,17.468,18.054,17.415,25.764
			c-0.193,28.215-21.082,63.83-45.613,77.77c-6.245,3.548-12.247,5.406-17.356,5.371H82.546z"/>
		<g>
			<path style="fill:#37474F;" d="M108.139,267.534c-0.187-0.01-0.375-0.051-0.555-0.125c-0.684-0.278-1.115-0.959-1.074-1.696
				l2.257-40.717c0.053-0.952,0.868-1.682,1.82-1.629c0.953,0.053,1.682,0.868,1.629,1.82l-1.979,35.695l20.338-23.335
				c0.626-0.719,1.716-0.794,2.437-0.167c0.719,0.627,0.794,1.718,0.167,2.437l-23.643,27.127
				C109.18,267.354,108.66,267.563,108.139,267.534z"/>
		</g>
		<g id="XMLID_1064_">
			<g id="XMLID_1069_">
				<path id="XMLID_1070_" style="fill:#27DEBF;" d="M96.749,297.06c-0.079,0-0.16-0.014-0.239-0.043
					c-0.378-0.134-0.575-0.55-0.439-0.928l11.337-31.671c0.136-0.378,0.552-0.576,0.928-0.439c0.378,0.134,0.575,0.55,0.439,0.928
					l-11.337,31.671C97.331,296.877,97.049,297.063,96.749,297.06z"/>
			</g>
			<path id="XMLID_1068_" style="fill:#27DEBF;" d="M108.139,257.637c3.272-1.859,5.904-0.316,5.879,3.448
				c-0.026,3.764-2.699,8.322-5.971,10.182c-3.272,1.859-5.904,0.316-5.878-3.448C102.193,264.055,104.867,259.496,108.139,257.637z
				"/>
			<path id="XMLID_1067_" style="opacity:0.2;" d="M108.139,257.637c3.272-1.859,5.904-0.316,5.879,3.448
				c-0.026,3.764-2.699,8.322-5.971,10.182c-3.272,1.859-5.904,0.316-5.878-3.448C102.193,264.055,104.867,259.496,108.139,257.637z
				"/>
		</g>
	</g>
</g>
<g id="Barrier">
	<g id="Barrier_1_">
		<g>
			<g>
				<path style="fill:#455A64;" d="M261.225,360.905l-6.369,3.677c-0.639,0.369-1.675,0.369-2.314,0l-2.027-1.17
					c-0.639-0.369-1.033-1.253-0.881-1.975l21.155-100.15c0.152-0.722,0.794-1.606,1.433-1.975l6.369-3.677
					c0.639-0.369,1.675-0.369,2.314,0l2.027,1.17c0.639,0.369,1.033,1.253,0.881,1.975l-21.155,100.15
					C262.505,359.652,261.864,360.536,261.225,360.905z"/>
				<path style="fill:#263238;" d="M261.225,360.905l-6.369,3.677c-0.639,0.369-1.033,0.083-0.881-0.639l21.155-100.15
					c0.152-0.722,0.794-1.606,1.433-1.975l6.369-3.677c0.639-0.369,1.033-0.083,0.881,0.639l-21.155,100.15
					C262.505,359.652,261.864,360.536,261.225,360.905z"/>
			</g>
			<g>
				<polygon style="fill:#37474F;" points="257.826,354.366 259.714,345.43 264.052,342.929 304.256,366.141 306.143,377.257 
					301.805,379.757 				"/>
				<polygon style="fill:#455A64;" points="301.806,379.757 257.826,354.366 259.714,345.43 299.918,368.642 				"/>
			</g>
			<g>
				<path style="fill:#37474F;" d="M308.978,388.476l-6.369,3.677c-0.639,0.369-1.675,0.369-2.314,0l-2.027-1.171
					c-0.639-0.369-1.257-1.258-1.381-1.985l-21.259-125.194c-0.124-0.727,0.294-1.616,0.933-1.985l6.369-3.677
					c0.639-0.369,1.675-0.369,2.314,0l2.027,1.171c0.639,0.369,1.257,1.258,1.381,1.985l21.258,125.194
					C310.035,387.219,309.617,388.107,308.978,388.476z"/>
				<path style="fill:#37474F;" d="M275.629,263.801l0.801,4.734l20.456,120.458c0.128,0.727,0.748,1.625,1.379,1.988l2.03,1.176
					c0.641,0.363,1.678,0.363,2.319,0l6.359-3.677c0.641-0.374,1.058-1.261,0.94-1.988l-21.182-124.765l-0.075-0.427
					c-0.128-0.727-0.748-1.624-1.379-1.988l-2.031-1.176c-0.641-0.363-1.678-0.363-2.319,0l-6.37,3.676
					C275.928,262.187,275.5,263.074,275.629,263.801z"/>
				<path style="fill:#455A64;" d="M288.653,261.297l21.258,125.194c0.123,0.727-0.294,1.616-0.933,1.985l-6.369,3.677
					c-0.639,0.369-1.257,0.078-1.381-0.649L279.971,266.31c-0.124-0.727,0.294-1.616,0.933-1.985l6.369-3.677
					C287.912,260.279,288.53,260.569,288.653,261.297z"/>
			</g>
			<path style="opacity:0.15;" d="M269.761,266.163l3.334,1.924c0.898,0.524,2.202,0.673,3.335,0.449
				c0.47-0.086,0.919-0.235,1.293-0.449l11.008-6.359l-0.075-0.427c-0.128-0.727-0.748-1.624-1.379-1.988l-2.031-1.176
				c-0.641-0.363-1.678-0.363-2.319,0c0.16-0.716,0.641-0.962,0-1.336l-2.02-1.165c-0.641-0.374-1.678-0.374-2.319,0l-6.37,3.676
				c-0.641,0.363-1.282,1.25-1.432,1.977L269.761,266.163z"/>
			<g>
				<path style="fill:#37474F;" d="M265.896,258.358c-0.009-0.49,0.311-0.981,0.958-1.355l12.738-7.354
					c1.278-0.738,3.35-0.738,4.628,0l6.237,3.601c0.632,0.365,0.951,0.841,0.958,1.319c0.008,0.489,0,2.421,0,2.904
					c0,0.483-0.319,0.967-0.958,1.336l-12.737,7.354c-1.278,0.738-3.35,0.738-4.628,0l-6.238-3.601
					c-0.631-0.365-0.951-0.841-0.958-1.319C265.889,260.754,265.905,258.835,265.896,258.358z"/>
				<path style="fill:#263238;" d="M265.896,258.358c-0.009-0.49,0.311-0.981,0.958-1.355l8.551-4.937v14.65
					c-0.837,0-1.675-0.184-2.314-0.553l-6.238-3.601c-0.631-0.365-0.951-0.841-0.958-1.319
					C265.888,260.754,265.905,258.835,265.896,258.358z"/>
				<path style="fill:#455A64;" d="M277.72,263.276l12.737-7.354c1.278-0.738,1.278-1.934,0-2.672l-6.238-3.601
					c-1.278-0.738-3.35-0.738-4.628,0l-12.738,7.354c-1.278,0.738-1.278,1.934,0,2.672l6.238,3.601
					C274.37,264.014,276.442,264.013,277.72,263.276z"/>
			</g>
			<g id="Clock_5_">
				<path id="XMLID_606_" style="fill:#455A64;" d="M285.712,242.861L285.712,242.861l-0.011-0.006c0,0-0.001,0-0.001,0
					l-4.302-2.531c-0.001-0.001-0.002-0.001-0.003-0.001l-0.015-0.008l0,0.001c-1.234-0.625-2.883-0.442-4.658,0.701
					c-3.566,2.296-6.29,7.593-6.084,11.829c0.103,2.112,0.914,3.561,2.143,4.2l0,0l0.011,0.006c0,0,0.001,0,0.001,0.001l4.302,2.531
					c0,0,0.001,0,0.001,0.001l0.013,0.007l0-0.001c1.234,0.627,2.884,0.444,4.661-0.7c3.566-2.296,6.29-7.592,6.084-11.829
					C287.753,244.95,286.941,243.5,285.712,242.861z"/>
				<path id="XMLID_605_" style="fill:#263238;" d="M277.005,259.535l-4.211-2.483c-0.002,0-0.002,0-0.002,0l-0.012-0.007
					c-1.229-0.64-2.04-2.09-2.142-4.199c-0.092-1.889,0.4-3.988,1.287-5.937l4.303,2.531c-0.889,1.949-1.379,4.048-1.287,5.937
					C275.041,257.444,275.82,258.875,277.005,259.535z"/>
				<path id="XMLID_603_" style="fill:#37474F;" d="M281.771,258.89c3.566-2.296,6.29-7.592,6.084-11.829
					c-0.206-4.236-3.263-5.809-6.829-3.513c-3.566,2.296-6.29,7.592-6.084,11.829C275.147,259.614,278.205,261.187,281.771,258.89z"
					/>
				<path id="XMLID_602_" style="fill:#263238;" d="M278.783,258.595c-2.102,0.102-2.445-2.262-2.494-3.283
					c-0.182-3.737,2.322-8.605,5.468-10.63c0.8-0.516,1.581-0.806,2.258-0.838c2.103-0.102,2.445,2.262,2.495,3.283
					c0.182,3.737-2.322,8.604-5.468,10.63C280.24,258.272,279.459,258.562,278.783,258.595L278.783,258.595z"/>
				<path style="fill:#27DEBF;" d="M281.756,244.682c0.711-0.458,1.401-0.726,2.022-0.806c0.436,0.737,0.552,1.687,0.579,2.242
					c0.181,3.736-2.323,8.604-5.468,10.63c-0.711,0.458-1.402,0.726-2.022,0.806c-0.436-0.737-0.552-1.687-0.579-2.242
					C276.107,251.575,278.611,246.707,281.756,244.682z"/>
			</g>
		</g>
		<g>
			<g>
				<path style="fill:#455A64;" d="M161.354,418.564l-6.369,3.677c-0.639,0.369-1.675,0.369-2.314,0l-2.027-1.17
					c-0.639-0.369-1.033-1.253-0.881-1.975l21.155-100.15c0.152-0.722,0.794-1.606,1.433-1.975l6.369-3.677
					c0.639-0.369,1.675-0.369,2.314,0l2.027,1.17c0.639,0.369,1.033,1.253,0.881,1.975l-21.155,100.15
					C162.635,417.311,161.993,418.196,161.354,418.564z"/>
				<path style="fill:#263238;" d="M161.354,418.564l-6.369,3.677c-0.639,0.369-1.033,0.083-0.881-0.639l21.155-100.15
					c0.152-0.722,0.794-1.606,1.433-1.975l6.369-3.677c0.639-0.369,1.033-0.083,0.881,0.639l-21.155,100.15
					C162.635,417.311,161.993,418.196,161.354,418.564z"/>
			</g>
			<g>
				<polygon style="fill:#37474F;" points="157.843,412.177 159.731,403.241 164.069,400.74 204.273,423.952 206.161,435.068 
					201.823,437.568 				"/>
				<polygon style="fill:#455A64;" points="201.823,437.568 157.843,412.177 159.731,403.241 199.935,426.453 				"/>
			</g>
			<g>
				<path style="fill:#37474F;" d="M209.108,446.135l-6.369,3.677c-0.639,0.369-1.675,0.369-2.314,0l-2.027-1.171
					c-0.639-0.369-1.257-1.258-1.381-1.985l-21.259-125.194c-0.124-0.727,0.294-1.616,0.933-1.985l6.369-3.677
					c0.639-0.369,1.675-0.369,2.314,0l2.027,1.171c0.639,0.369,1.257,1.258,1.381,1.985l21.258,125.194
					C210.165,444.878,209.747,445.766,209.108,446.135z"/>
				<path style="fill:#37474F;" d="M175.758,321.46l0.801,4.734l20.456,120.458c0.128,0.727,0.748,1.625,1.379,1.988l2.031,1.176
					c0.641,0.363,1.678,0.363,2.319,0l6.359-3.677c0.641-0.374,1.058-1.261,0.94-1.988l-21.182-124.765l-0.075-0.427
					c-0.128-0.727-0.748-1.625-1.379-1.988l-2.031-1.176c-0.641-0.363-1.678-0.363-2.319,0l-6.37,3.676
					C176.058,319.846,175.63,320.733,175.758,321.46z"/>
				<path style="fill:#455A64;" d="M188.783,318.956l21.258,125.194c0.124,0.727-0.294,1.616-0.933,1.985l-6.369,3.677
					c-0.639,0.369-1.257,0.078-1.381-0.649L180.1,323.969c-0.123-0.727,0.294-1.616,0.933-1.985l6.369-3.677
					C188.041,317.938,188.659,318.228,188.783,318.956z"/>
			</g>
			<path style="opacity:0.15;" d="M169.891,323.822l3.334,1.924c0.898,0.524,2.202,0.673,3.335,0.449
				c0.47-0.085,0.919-0.235,1.293-0.449l11.008-6.359l-0.075-0.427c-0.128-0.727-0.748-1.625-1.379-1.988l-2.031-1.176
				c-0.641-0.363-1.678-0.363-2.319,0c0.16-0.716,0.641-0.962,0-1.336l-2.02-1.165c-0.641-0.374-1.678-0.374-2.319,0l-6.37,3.676
				c-0.641,0.363-1.282,1.25-1.432,1.977L169.891,323.822z"/>
			<g>
				<path style="fill:#37474F;" d="M166.026,316.017c-0.009-0.49,0.311-0.981,0.958-1.355l12.738-7.354
					c1.278-0.738,3.35-0.738,4.628,0l6.237,3.601c0.632,0.365,0.951,0.841,0.958,1.319c0.008,0.489,0,2.421,0,2.904
					c0,0.484-0.32,0.967-0.959,1.336l-12.737,7.354c-1.278,0.738-3.35,0.738-4.628,0l-6.238-3.601
					c-0.631-0.365-0.951-0.841-0.958-1.319C166.018,318.413,166.034,316.494,166.026,316.017z"/>
				<path style="fill:#263238;" d="M166.026,316.017c-0.009-0.49,0.311-0.981,0.958-1.355l8.551-4.937v14.651
					c-0.837,0-1.675-0.184-2.314-0.553l-6.238-3.601c-0.631-0.365-0.951-0.841-0.958-1.319
					C166.018,318.413,166.034,316.494,166.026,316.017z"/>
				<path style="fill:#455A64;" d="M177.849,320.935l12.737-7.354c1.278-0.738,1.278-1.934,0-2.672l-6.238-3.601
					c-1.278-0.738-3.35-0.738-4.628,0l-12.737,7.354c-1.278,0.738-1.278,1.934,0,2.672l6.238,3.601
					C174.499,321.673,176.572,321.673,177.849,320.935z"/>
			</g>
			<g id="Clock_4_">
				<path id="XMLID_600_" style="fill:#455A64;" d="M185.841,300.521L185.841,300.521l-0.011-0.006c0,0-0.001,0-0.001-0.001
					l-4.302-2.531c-0.001,0-0.002-0.001-0.002-0.001l-0.015-0.008l0,0.001c-1.234-0.626-2.883-0.442-4.658,0.701
					c-3.566,2.296-6.29,7.592-6.084,11.829c0.103,2.112,0.914,3.561,2.143,4.2l0,0l0.011,0.006c0.001,0,0.001,0,0.001,0.001
					l4.302,2.531c0,0,0.001,0,0.001,0.001l0.013,0.007l0-0.001c1.234,0.628,2.884,0.444,4.661-0.7
					c3.566-2.297,6.29-7.592,6.084-11.829C187.882,302.609,187.071,301.159,185.841,300.521z"/>
				<path id="XMLID_598_" style="fill:#263238;" d="M177.135,317.194l-4.212-2.483c-0.002,0-0.002,0-0.002,0l-0.012-0.007
					c-1.229-0.64-2.04-2.09-2.142-4.199c-0.092-1.889,0.4-3.988,1.287-5.937l4.303,2.531c-0.889,1.949-1.379,4.048-1.287,5.937
					C175.17,315.103,175.95,316.534,177.135,317.194z"/>
				<path id="XMLID_597_" style="fill:#37474F;" d="M181.9,316.549c3.566-2.297,6.29-7.592,6.084-11.829
					c-0.206-4.237-3.263-5.809-6.83-3.513c-3.566,2.297-6.29,7.592-6.084,11.829C175.277,317.273,178.334,318.846,181.9,316.549z"/>
				<path id="XMLID_596_" style="fill:#263238;" d="M178.912,316.254c-2.102,0.102-2.445-2.262-2.494-3.283
					c-0.181-3.737,2.322-8.605,5.468-10.63c0.8-0.516,1.581-0.806,2.258-0.838c2.102-0.102,2.445,2.262,2.494,3.283
					c0.181,3.737-2.322,8.604-5.468,10.63C180.37,315.931,179.589,316.221,178.912,316.254L178.912,316.254z"/>
				<path style="fill:#27DEBF;" d="M181.885,302.341c0.711-0.458,1.401-0.726,2.022-0.806c0.436,0.737,0.552,1.687,0.579,2.242
					c0.182,3.737-2.322,8.604-5.468,10.63c-0.711,0.458-1.401,0.726-2.022,0.806c-0.436-0.737-0.552-1.687-0.579-2.242
					C176.236,309.234,178.74,304.366,181.885,302.341z"/>
			</g>
		</g>
		<g>
			<g>
				<polygon style="fill:#27DEBF;" points="171.194,337.69 305.774,259.99 303.584,258.726 169.004,336.426 				"/>
				<polygon style="opacity:0.4;fill:#FFFFFF;" points="171.194,337.69 305.774,259.99 303.584,258.726 169.004,336.426 				"/>
				<polygon style="fill:#27DEBF;" points="171.194,337.69 177.726,376.552 312.306,298.852 305.774,259.99 				"/>
				<polygon style="fill:#37474F;" points="169.004,336.426 175.536,375.288 177.726,376.552 171.194,337.69 				"/>
				<polygon style="fill:#27DEBF;" points="170.366,344.526 173.977,366.019 176.167,367.283 172.556,345.79 				"/>
				<polyline style="opacity:0.2;" points="170.366,344.526 173.977,366.019 176.167,367.283 172.556,345.79 				"/>
			</g>
			<g>
				<polygon style="fill:#37474F;" points="183.54,330.562 177.726,376.552 171.194,337.69 				"/>
				<polygon style="fill:#37474F;" points="299.96,305.98 305.774,259.99 312.306,298.852 				"/>
			</g>
			<g>
				<g>
					<polygon style="fill:#37474F;" points="200.322,363.506 206.137,317.514 192.771,325.224 186.956,371.214 					"/>
					<polygon style="fill:#37474F;" points="222.923,350.46 228.737,304.467 215.371,312.177 209.557,358.167 					"/>
					<polygon style="fill:#37474F;" points="245.523,337.413 251.338,291.421 237.972,299.13 232.158,345.12 					"/>
					<polygon style="fill:#37474F;" points="268.124,324.366 273.939,278.374 260.573,286.084 254.758,332.074 					"/>
					<polygon style="fill:#37474F;" points="290.725,311.319 296.539,265.327 283.173,273.037 277.359,319.027 					"/>
				</g>
				<g>
					<polygon style="fill:#455A64;" points="192.771,325.224 190.581,323.96 203.95,316.25 206.137,317.514 					"/>
					<polygon style="fill:#455A64;" points="215.371,312.177 213.181,310.913 226.551,303.203 228.737,304.467 					"/>
					<polygon style="fill:#455A64;" points="237.972,299.13 235.782,297.866 249.152,290.156 251.338,291.421 					"/>
					<polygon style="fill:#455A64;" points="260.573,286.084 258.383,284.819 271.753,277.109 273.939,278.374 					"/>
					<polygon style="fill:#455A64;" points="283.173,273.037 280.983,271.773 294.353,264.063 296.539,265.327 					"/>
				</g>
				<polygon style="fill:#455A64;" points="171.194,337.69 169.004,336.426 181.351,329.296 183.541,330.561 				"/>
			</g>
		</g>
		<polygon style="fill:#27DEBF;" points="172.556,345.79 176.167,367.283 310.747,289.583 307.136,268.09 		"/>
		<g>
			<path style="fill:#FAFAFA;" d="M194.258,351.839c-0.104,0.06-0.199,0.065-0.289,0.017c-0.088-0.049-0.143-0.135-0.162-0.26
				l-1.752-11.06c-0.02-0.125,0-0.256,0.06-0.389c0.061-0.135,0.143-0.232,0.245-0.291l1.836-1.061
				c0.103-0.059,0.198-0.064,0.288-0.017c0.089,0.048,0.144,0.136,0.163,0.261l1.752,11.059c0.02,0.125,0,0.255-0.061,0.39
				s-0.143,0.231-0.244,0.291L194.258,351.839z"/>
			<path style="fill:#FAFAFA;" d="M205.51,345.342c-0.158,0.092-0.294,0.115-0.408,0.068c-0.114-0.047-0.191-0.09-0.228-0.131
				l-4.137-4.001l0.917,5.786c0.019,0.125-0.002,0.255-0.062,0.39c-0.061,0.136-0.142,0.232-0.245,0.29l-1.836,1.061
				c-0.102,0.059-0.197,0.065-0.287,0.018c-0.09-0.049-0.144-0.137-0.164-0.262l-1.751-11.059c-0.02-0.125,0-0.256,0.061-0.391
				c0.061-0.134,0.143-0.23,0.244-0.29l1.458-0.842c0.158-0.091,0.295-0.114,0.409-0.069c0.114,0.047,0.19,0.091,0.227,0.131
				l4.137,4.002l-0.916-5.786c-0.02-0.125,0-0.256,0.06-0.39c0.059-0.134,0.142-0.23,0.245-0.291l1.836-1.06
				c0.103-0.06,0.198-0.064,0.288-0.017c0.089,0.047,0.144,0.135,0.163,0.26l1.752,11.06c0.02,0.125,0,0.254-0.061,0.389
				c-0.061,0.136-0.143,0.232-0.244,0.291L205.51,345.342z"/>
			<path style="fill:#FAFAFA;" d="M216.169,326.11c0.598-0.346,1.148-0.572,1.651-0.683c0.502-0.108,0.949-0.093,1.339,0.049
				c0.389,0.144,0.715,0.413,0.977,0.81c0.263,0.396,0.444,0.927,0.55,1.589c0.106,0.673,0.109,1.313,0.007,1.921
				c-0.104,0.607-0.297,1.174-0.58,1.698c-0.284,0.525-0.651,1.011-1.1,1.458c-0.45,0.445-0.975,0.842-1.572,1.188l-1.794,1.035
				l0.554,3.492c0.02,0.125,0,0.256-0.061,0.391c-0.061,0.135-0.143,0.23-0.244,0.29l-1.836,1.06
				c-0.104,0.06-0.199,0.066-0.289,0.017c-0.088-0.049-0.143-0.136-0.162-0.261l-1.752-11.06c-0.02-0.125,0-0.256,0.06-0.39
				c0.061-0.134,0.143-0.231,0.245-0.29L216.169,326.11z M215.223,332.504l1.725-0.996c0.393-0.227,0.7-0.52,0.924-0.879
				c0.223-0.359,0.297-0.779,0.222-1.258c-0.076-0.48-0.26-0.752-0.55-0.814c-0.291-0.063-0.632,0.02-1.024,0.246l-1.725,0.996
				L215.223,332.504z"/>
			<path style="fill:#FAFAFA;" d="M226.273,320.276c0.617-0.355,1.181-0.594,1.692-0.715c0.511-0.121,0.961-0.12,1.354,0.003
				c0.392,0.122,0.719,0.38,0.979,0.771c0.261,0.391,0.442,0.918,0.548,1.58c0.136,0.855,0.103,1.65-0.098,2.383
				c-0.2,0.732-0.543,1.399-1.027,2.004l2.383,3.07c0.039,0.053,0.063,0.107,0.072,0.166c0.016,0.102,0,0.207-0.049,0.317
				c-0.049,0.109-0.117,0.188-0.201,0.235l-1.906,1.102c-0.186,0.107-0.327,0.133-0.422,0.076c-0.097-0.057-0.177-0.123-0.238-0.199
				l-2.137-2.766l-1.29,0.744l0.581,3.664c0.02,0.125,0,0.256-0.061,0.391c-0.061,0.135-0.143,0.23-0.244,0.29l-1.836,1.06
				c-0.104,0.06-0.199,0.066-0.289,0.018c-0.088-0.049-0.143-0.136-0.162-0.261l-1.752-11.06c-0.02-0.125,0-0.256,0.06-0.39
				c0.061-0.134,0.143-0.231,0.245-0.29L226.273,320.276z M225.51,326.378l1.584-0.914c0.392-0.227,0.703-0.506,0.931-0.836
				c0.229-0.332,0.304-0.736,0.229-1.217c-0.076-0.479-0.257-0.736-0.543-0.77c-0.285-0.034-0.625,0.062-1.018,0.288l-1.584,0.915
				L225.51,326.378z"/>
			<path style="fill:#FAFAFA;" d="M232.923,321.313c-0.072-0.654-0.054-1.323,0.059-2.004c0.11-0.682,0.318-1.336,0.621-1.967
				c0.303-0.629,0.699-1.219,1.188-1.768c0.489-0.551,1.079-1.026,1.771-1.426c0.682-0.394,1.308-0.621,1.88-0.683
				c0.572-0.063,1.073,0.008,1.51,0.212c0.435,0.203,0.797,0.529,1.088,0.978c0.29,0.449,0.499,0.985,0.63,1.607
				c0.096,0.48,0.186,0.988,0.271,1.525c0.084,0.537,0.155,1.043,0.211,1.521c0.072,0.656,0.054,1.324-0.058,2.005
				c-0.112,0.682-0.319,1.341-0.62,1.974c-0.303,0.637-0.7,1.227-1.195,1.775c-0.495,0.546-1.083,1.017-1.765,1.41
				c-0.692,0.399-1.32,0.631-1.887,0.697c-0.565,0.064-1.065-0.008-1.502-0.217c-0.437-0.208-0.8-0.537-1.089-0.987
				c-0.291-0.449-0.5-0.985-0.63-1.608c-0.093-0.457-0.181-0.953-0.267-1.49C233.055,322.335,232.982,321.815,232.923,321.313z
				 M239.545,320.723c-0.023-0.211-0.05-0.444-0.081-0.701c-0.03-0.256-0.066-0.517-0.107-0.778
				c-0.041-0.263-0.087-0.514-0.136-0.753c-0.047-0.24-0.092-0.455-0.132-0.644c-0.064-0.274-0.154-0.509-0.271-0.703
				c-0.117-0.193-0.263-0.337-0.436-0.43c-0.173-0.095-0.374-0.13-0.605-0.108c-0.231,0.022-0.492,0.115-0.781,0.282
				c-0.291,0.167-0.534,0.364-0.732,0.591c-0.199,0.227-0.356,0.471-0.473,0.732c-0.117,0.26-0.196,0.533-0.238,0.818
				c-0.041,0.285-0.049,0.576-0.021,0.873c0.011,0.203,0.034,0.432,0.068,0.679c0.034,0.248,0.072,0.503,0.114,0.766
				c0.042,0.262,0.084,0.519,0.129,0.767c0.044,0.248,0.092,0.471,0.144,0.664c0.127,0.551,0.363,0.93,0.709,1.143
				c0.344,0.211,0.806,0.15,1.386-0.184c0.579-0.334,0.98-0.771,1.198-1.309C239.5,321.888,239.589,321.321,239.545,320.723z"/>
			<path style="fill:#FAFAFA;" d="M247.729,310.691c-0.318,0.184-0.576,0.392-0.773,0.624c-0.197,0.232-0.351,0.479-0.457,0.74
				c-0.107,0.262-0.174,0.529-0.201,0.809c-0.027,0.276-0.034,0.555-0.02,0.833c0.004,0.159,0.025,0.371,0.061,0.637
				c0.038,0.265,0.079,0.537,0.123,0.817c0.045,0.279,0.092,0.551,0.145,0.813c0.051,0.264,0.094,0.467,0.127,0.609
				c0.061,0.252,0.144,0.477,0.252,0.678c0.108,0.198,0.243,0.35,0.409,0.454c0.163,0.105,0.364,0.148,0.602,0.13
				c0.236-0.018,0.509-0.117,0.817-0.295c0.243-0.141,0.465-0.307,0.67-0.5c0.204-0.192,0.374-0.408,0.51-0.648
				c0.135-0.24,0.23-0.506,0.286-0.801c0.055-0.293,0.055-0.611,0.001-0.953l-1.176,0.679c-0.104,0.06-0.2,0.066-0.289,0.017
				c-0.089-0.047-0.144-0.135-0.163-0.26l-0.288-1.815c-0.02-0.125,0-0.256,0.06-0.391c0.061-0.135,0.142-0.231,0.245-0.291
				l3.392-1.958c0.102-0.06,0.198-0.065,0.287-0.017c0.09,0.049,0.145,0.137,0.164,0.262l0.348,2.19
				c0.115,0.732,0.107,1.452-0.025,2.164c-0.131,0.711-0.361,1.383-0.69,2.015c-0.327,0.632-0.739,1.21-1.233,1.729
				c-0.492,0.521-1.048,0.961-1.664,1.316c-0.673,0.389-1.293,0.613-1.859,0.673c-0.566,0.06-1.07-0.015-1.511-0.222
				c-0.44-0.205-0.806-0.534-1.097-0.983c-0.289-0.448-0.5-0.979-0.626-1.591c-0.093-0.457-0.183-0.953-0.267-1.49
				c-0.086-0.535-0.157-1.055-0.217-1.557c-0.08-0.638-0.063-1.299,0.053-1.983c0.117-0.683,0.325-1.343,0.628-1.978
				c0.302-0.637,0.7-1.23,1.194-1.782c0.493-0.554,1.076-1.024,1.749-1.413c0.654-0.377,1.261-0.6,1.82-0.668
				c0.562-0.067,1.052-0.027,1.474,0.121c0.421,0.15,0.769,0.379,1.041,0.689c0.273,0.31,0.451,0.653,0.531,1.03
				c0.024,0.096,0.012,0.201-0.042,0.313c-0.054,0.113-0.123,0.193-0.206,0.241l-1.864,1.076c-0.141,0.081-0.259,0.094-0.354,0.036
				c-0.096-0.057-0.189-0.115-0.279-0.174c-0.164-0.131-0.371-0.216-0.623-0.258C248.541,310.316,248.186,310.426,247.729,310.691z"
				/>
			<path style="fill:#FAFAFA;" d="M258.14,301.878c0.617-0.355,1.181-0.594,1.691-0.715c0.511-0.121,0.962-0.12,1.354,0.003
				c0.392,0.122,0.717,0.38,0.979,0.771c0.261,0.391,0.442,0.918,0.548,1.58c0.136,0.855,0.103,1.65-0.098,2.383
				c-0.2,0.732-0.543,1.399-1.028,2.004l2.384,3.07c0.039,0.053,0.063,0.107,0.072,0.166c0.016,0.102-0.002,0.207-0.049,0.317
				c-0.049,0.109-0.117,0.188-0.201,0.235l-1.906,1.102c-0.185,0.107-0.327,0.133-0.422,0.076c-0.097-0.057-0.177-0.123-0.238-0.199
				l-2.137-2.766l-1.29,0.744l0.581,3.664c0.02,0.125,0,0.256-0.061,0.391c-0.06,0.135-0.143,0.23-0.244,0.29l-1.836,1.06
				c-0.104,0.059-0.199,0.066-0.289,0.017c-0.088-0.049-0.143-0.136-0.162-0.261l-1.752-11.06c-0.02-0.125,0-0.256,0.06-0.39
				c0.061-0.134,0.143-0.232,0.245-0.29L258.14,301.878z M257.378,307.979l1.584-0.914c0.393-0.227,0.703-0.506,0.931-0.836
				c0.228-0.332,0.304-0.736,0.228-1.217c-0.076-0.479-0.258-0.736-0.543-0.77c-0.285-0.034-0.625,0.061-1.018,0.288l-1.584,0.915
				L257.378,307.979z"/>
			<path style="fill:#FAFAFA;" d="M272.89,303.452c0.102-0.06,0.198-0.064,0.288-0.018c0.089,0.049,0.144,0.136,0.163,0.261
				l0.288,1.815c0.02,0.125,0,0.255-0.061,0.391c-0.061,0.135-0.142,0.23-0.243,0.289l-6.645,3.836
				c-0.102,0.059-0.198,0.065-0.288,0.018c-0.089-0.049-0.143-0.137-0.163-0.262l-1.751-11.059c-0.02-0.125,0-0.256,0.06-0.391
				c0.061-0.134,0.143-0.23,0.245-0.29l6.531-3.771c0.102-0.059,0.197-0.065,0.287-0.018c0.09,0.049,0.144,0.137,0.164,0.262
				l0.287,1.814c0.021,0.125,0,0.256-0.061,0.389c-0.06,0.136-0.143,0.232-0.244,0.291l-4.317,2.492l0.293,1.85l4.009-2.315
				c0.103-0.059,0.198-0.064,0.287-0.017c0.09,0.048,0.145,0.136,0.164,0.261l0.287,1.814c0.021,0.125,0,0.256-0.061,0.39
				c-0.06,0.135-0.142,0.231-0.244,0.291l-4.009,2.314l0.304,1.917L272.89,303.452z"/>
			<path style="fill:#FAFAFA;" d="M277.732,290.378c0.599-0.345,1.164-0.556,1.698-0.634c0.532-0.076,1.008-0.057,1.424,0.065
				c0.417,0.12,0.76,0.32,1.029,0.603c0.269,0.28,0.436,0.6,0.504,0.96c0.017,0.103-0.001,0.209-0.05,0.318
				c-0.049,0.109-0.111,0.185-0.185,0.228l-1.836,1.061c-0.131,0.075-0.239,0.114-0.326,0.113c-0.086,0.001-0.178-0.02-0.277-0.063
				c-0.034-0.018-0.087-0.05-0.16-0.095c-0.073-0.045-0.173-0.078-0.299-0.099c-0.125-0.021-0.277-0.014-0.455,0.02
				c-0.179,0.035-0.39,0.121-0.632,0.262c-0.178,0.103-0.346,0.215-0.506,0.338c-0.158,0.123-0.296,0.252-0.412,0.388
				c-0.115,0.136-0.205,0.284-0.266,0.444c-0.061,0.16-0.079,0.325-0.052,0.496c0.027,0.172,0.095,0.289,0.202,0.352
				c0.107,0.063,0.272,0.082,0.498,0.058c0.225-0.024,0.517-0.091,0.879-0.199c0.359-0.107,0.807-0.247,1.339-0.419
				c0.535-0.171,1.009-0.271,1.422-0.297c0.415-0.027,0.773,0.03,1.075,0.173c0.304,0.143,0.549,0.374,0.738,0.695
				c0.188,0.321,0.324,0.749,0.409,1.286c0.093,0.582,0.067,1.164-0.075,1.744c-0.143,0.581-0.382,1.146-0.718,1.695
				c-0.337,0.549-0.755,1.061-1.257,1.537c-0.5,0.477-1.064,0.895-1.69,1.256c-0.635,0.366-1.229,0.598-1.786,0.695
				c-0.556,0.096-1.049,0.086-1.482-0.033c-0.431-0.117-0.788-0.326-1.069-0.623c-0.282-0.299-0.462-0.662-0.54-1.092
				c-0.017-0.101,0-0.207,0.049-0.316c0.049-0.109,0.111-0.186,0.186-0.229l1.836-1.06c0.131-0.076,0.237-0.114,0.318-0.119
				c0.081-0.002,0.164,0.016,0.252,0.051c0.045,0.024,0.112,0.066,0.203,0.125c0.092,0.061,0.209,0.107,0.353,0.145
				c0.143,0.035,0.317,0.037,0.52,0.006c0.205-0.031,0.447-0.126,0.727-0.287c0.495-0.286,0.898-0.59,1.21-0.914
				c0.31-0.322,0.438-0.655,0.385-0.998c-0.027-0.171-0.11-0.278-0.251-0.322c-0.139-0.045-0.338-0.043-0.597-0.001
				c-0.258,0.042-0.583,0.128-0.977,0.256c-0.392,0.126-0.856,0.27-1.392,0.43c-1.003,0.305-1.772,0.292-2.309-0.041
				c-0.538-0.331-0.883-0.987-1.038-1.97c-0.078-0.49-0.061-1.012,0.05-1.562c0.111-0.55,0.313-1.095,0.605-1.638
				c0.291-0.543,0.666-1.055,1.125-1.537C276.592,291.147,277.126,290.729,277.732,290.378z"/>
			<path style="fill:#FAFAFA;" d="M287.879,284.52c0.598-0.345,1.163-0.555,1.696-0.634c0.534-0.075,1.01-0.056,1.426,0.065
				c0.417,0.121,0.76,0.32,1.028,0.603c0.27,0.28,0.438,0.601,0.504,0.96c0.017,0.104,0,0.209-0.049,0.318
				c-0.05,0.109-0.111,0.186-0.186,0.229l-1.836,1.06c-0.131,0.075-0.239,0.114-0.326,0.114c-0.087,0-0.179-0.021-0.277-0.064
				c-0.034-0.018-0.087-0.049-0.16-0.094c-0.074-0.045-0.173-0.078-0.299-0.1c-0.126-0.02-0.277-0.014-0.456,0.021
				c-0.178,0.035-0.389,0.121-0.631,0.262c-0.178,0.101-0.346,0.215-0.506,0.338c-0.158,0.123-0.296,0.252-0.412,0.387
				c-0.115,0.137-0.205,0.284-0.266,0.444c-0.063,0.16-0.079,0.325-0.052,0.497c0.027,0.172,0.095,0.288,0.2,0.352
				c0.107,0.061,0.273,0.082,0.499,0.057c0.226-0.024,0.518-0.09,0.878-0.199c0.361-0.107,0.809-0.247,1.341-0.418
				c0.535-0.172,1.009-0.271,1.422-0.298c0.414-0.026,0.772,0.03,1.075,0.173c0.303,0.143,0.549,0.375,0.738,0.695
				c0.188,0.321,0.324,0.75,0.409,1.287c0.093,0.582,0.067,1.164-0.075,1.744c-0.143,0.58-0.382,1.145-0.719,1.694
				c-0.336,0.549-0.755,1.061-1.256,1.537c-0.5,0.477-1.064,0.895-1.69,1.256c-0.635,0.366-1.23,0.599-1.787,0.696
				c-0.555,0.096-1.049,0.085-1.48-0.033c-0.432-0.117-0.789-0.326-1.07-0.624c-0.282-0.299-0.462-0.661-0.539-1.091
				c-0.017-0.103,0-0.208,0.049-0.317c0.049-0.109,0.111-0.186,0.185-0.229l1.836-1.06c0.131-0.076,0.236-0.115,0.317-0.119
				c0.082-0.002,0.165,0.015,0.253,0.051c0.045,0.023,0.112,0.066,0.203,0.125c0.091,0.061,0.208,0.107,0.353,0.143
				c0.144,0.036,0.316,0.038,0.521,0.007c0.205-0.031,0.446-0.127,0.727-0.288c0.495-0.286,0.898-0.59,1.209-0.913
				c0.311-0.322,0.439-0.656,0.386-0.998c-0.027-0.172-0.111-0.279-0.251-0.322c-0.139-0.045-0.338-0.044-0.597-0.002
				c-0.258,0.043-0.583,0.129-0.977,0.256c-0.392,0.127-0.857,0.27-1.392,0.43c-1.003,0.305-1.772,0.293-2.309-0.041
				c-0.538-0.33-0.884-0.986-1.039-1.969c-0.078-0.491-0.061-1.012,0.051-1.563c0.111-0.549,0.313-1.095,0.605-1.637
				c0.291-0.543,0.666-1.055,1.125-1.538C286.739,285.289,287.271,284.872,287.879,284.52z"/>
		</g>
	</g>
</g>
<g id="Character">
	<g id="Character_2_">
		<g id="XMLID_750_">
			<g id="XMLID_578_">
				<path id="XMLID_581_" style="fill:#37474F;" d="M454.44,249.406c0.405-0.339,0.904-0.551,1.392-0.757
					c0.879-0.37,1.768-0.744,2.71-0.901c0.941-0.158,1.953-0.082,2.775,0.402c1.255,0.739,1.816,2.234,2.247,3.624
					c0.64,2.062,1.196,4.154,1.99,6.163c1.171,2.961,3.093,5.382,5.035,7.856c1.636,2.085,3.167,7.164,1.655,11.689
					c-0.97,2.901-2.726,3.911-4.563,4.351c-1.045-2.344-2.09-4.688-3.135-7.032c-2.154-4.833-4.308-9.666-6.463-14.499
					c-0.833-1.87-1.667-3.74-2.501-5.61c-0.363-0.814-0.726-1.629-1.089-2.443c-0.45-1.01-1.189-1.789-0.156-2.752
					C454.371,249.465,454.405,249.435,454.44,249.406z"/>
				<path id="XMLID_579_" style="fill:#455A64;" d="M453.798,248.222c0.069-0.018,0.139-0.036,0.208-0.054
					c1.781-0.477,3.632-1.257,5.358-0.184c1.094,0.68,1.843,1.813,2.311,3.012c0.469,1.2,0.686,2.479,0.934,3.743
					c0.234,1.191,0.592,2.273,0.997,3.41c0.381,1.068,1.091,1.913,1.714,2.862c0.938,1.428,3.48,4.341,4.303,5.846
					c0.66,1.207,1.067,2.539,1.343,3.886c0.303,1.477,0.452,3.003,0.232,4.494c-0.342,2.32-1.689,5.567-3.733,6.73
					c-2.108,1.2-5.066,0.89-6.321-2.135c-0.371-0.895-0.748-1.783-1.062-2.7c-0.546-1.593-1.515-3.518-2.443-4.958
					c-1.422-2.207-3.361-4.322-4.569-5.412c-0.192-0.173-0.379-0.368-0.573-0.519c-2.19-1.706-4.467-3.23-4.616-4.179
					c-0.124-0.79,0.926-8.76-0.65-10.826c-0.165-0.217-0.217-0.59-0.168-0.856c0.081-0.434,0.089-0.371,0.573-0.508
					c0.718-0.203,1.442-0.386,2.163-0.579C451.132,248.937,452.463,248.571,453.798,248.222z"/>
			</g>
			<g>
				<g id="XMLID_586_">
					<path style="fill:#FFA8A7;" d="M364.327,180.648c-2.35,13.391-3.122,17.086-5.113,25.05c-1.485,5.943-4.908,25-6.474,41.377
						c-0.335,3.505,2.97,11.946,4.413,15.158c8.413,18.721,22.243,48.595,22.243,48.595c1.284,2.928,1.621,5.254,1.465,8.086
						c-0.206,3.491-1.363,8.083-2.926,12.097c-0.484,1.243-1.031,2.71-1.735,3.975c-1.516,3.858,0.918,4.399,4.658,2.514
						c3.946-1.989,6.296-6.397,7.243-9.55c1.414-4.702,4.198-12.128,3.947-14.469l0.044-0.045l-0.09-0.258l-0.001-0.002v0
						l-0.824-4.609c0,0-3.776-14.166-6.95-30.465c-2.823-14.497-4.308-19.24-11.493-29.444l23.818-57.406L364.327,180.648z"/>
				</g>
				<g id="XMLID_583_">
					<path id="XMLID_585_" style="fill:#37474F;" d="M397.367,316.666c0.283,0.268,0.96,1.464,1.023,2.712
						c-0.505,3.44-4.08,6.006-5.449,8.212c-1.37,2.207-2.67,6.978-3.496,9.808c-0.18,0.615-0.444,1.204-0.747,1.768
						c-0.257,0.479-0.442,1.063-0.751,1.504c-0.73,1.043-2.155,1.862-3.259,2.441c-2.423,1.27-5.2,1.829-7.926,1.77
						c-2.065-0.045-4.219-0.462-5.82-1.768c-0.677-0.552-1.27-1.385-1.086-2.239c0.2-0.929,1.193-1.427,2.079-1.771
						c1.862-0.723,3.763-1.349,5.583-2.172c1.502-0.679,2.958-1.499,4.212-2.576c1.199-1.03,2.11-2.286,3.1-3.52
						c2.007-2.502,4.027-4.993,6.086-7.452C391.314,322.908,396.801,316.13,397.367,316.666z"/>
					<path id="XMLID_584_" style="fill:#455A64;" d="M394.455,311.146c1.228,1.684,4.045,4.238,2.946,7.323
						c-0.954,2.677-3.523,5.313-5.211,7.484c-0.946,1.217-1.213,2.473-1.751,3.867c-0.862,2.232-1.334,4.595-2.213,6.825
						c-1.082,2.744-4.091,4.511-6.839,5.275c-2.724,0.758-5.62,0.696-8.411,0.247c-1.092-0.176-2.257-0.456-2.98-1.294
						c-0.712-0.825-0.825-2.047-0.511-3.091c0.313-1.043,0.996-1.936,1.741-2.731c1.178-1.257,2.54-2.331,3.744-3.564
						c2.212-2.265,2.911-5.017,3.689-8.003c0.546-2.097,1.342-5.119,0.974-6.475c-0.178-0.655-0.483-1.626-0.409-2.073
						c0.083-0.494,0.317-0.75,0.754-0.995c0.975-0.546,2.226-0.457,3.344-0.449c0.992,0.007,1.969,0.241,2.96,0.283
						c1.687,0.071,3.272-0.759,4.242-2.473c0.423-0.747,0.767-1.704,0.654-2.734l-0.304-0.951
						C391.819,306.79,393.082,309.263,394.455,311.146z"/>
				</g>
			</g>
			<path style="fill:#FFA8A7;" d="M451.206,255.63c-0.741-3.942-2.462-4.512-2.462-4.512l-12.554,0.244l-0.013,0.275l-0.215,12.705
				l13.147-2.372C449.108,261.97,451.947,259.572,451.206,255.63z"/>
			<path style="fill:#37474F;" d="M436.541,250.814l-29.208,0.292c0,0,5.302-39.19,3.544-62.124l-26.075-3.003l-20.285-6.656
				c-2.391,7.233-9.438,43.361-9.438,43.361c-1.366,10.173-2.267,14.555-2.973,22.368c-0.706,7.813,1.238,10.663,5.221,19.278
				c3.984,8.615,19.894,41.793,19.894,41.793s2.046,1.593,6.435-0.324c4.389-1.917,5.723-5.02,5.723-5.02
				s-4.754-22.178-6.427-31.554c-1.672-9.376-7.223-18.56-9.546-20.597l10.385-24.956c0.659,10.155,1.324,28.448,3.488,38.893
				c1.435,6.927,5.542,10.939,13.125,9.729c10.554-1.683,38.453-7.94,38.453-7.94C444.455,263.557,443.056,253.089,436.541,250.814z
				"/>
			<path style="fill:#263238;" d="M407.334,251.106c0,0,0.398,5.29-1.863,9.241c0,0,2.435-2.122,3.634-5.388
				c1.199-3.265,10.561-2.489,17.561-4.046L407.334,251.106z"/>
			<path style="fill:#263238;" d="M383.732,223.756l-0.739-14.031c0,0-5.487-2.816-10.535-8.841c0,0,3.545,5.819,8.349,9.545
				l0.919,13.022l-8.319,25.176L383.732,223.756z"/>
			<path style="opacity:0.2;" d="M373.9,256.979"/>
		</g>
		<g>
			<g>
				<path style="fill:#FFA8A7;" d="M346.69,55.654c-0.022-1.805,0.027-3.617,0.277-5.407c0.452-3.241,1.572-7.672,5.084-8.808
					c0.645-0.208,1.369-0.263,1.896-0.689c0.575-0.465,0.794-1.284,1.408-1.694c0.942-0.629,2.262,0.011,3.329-0.344
					c0.039-0.013,0.079-0.028,0.117-0.044c0.831-0.342,1.25-1.253,1.592-2.084c0.622-1.51,1.243-3.02,1.865-4.53
					c0.311-0.755,0.621-1.51,0.932-2.265c0.192-0.466,0.267-1.275,0.729-1.566c0.257-0.162,0.598-0.114,0.87,0.019
					c0.837,0.405,1.169,1.428,1.24,2.355c0.167,2.174-0.575,4.481-1.279,6.505c-0.82,2.357-1.489,4.767-2.002,7.208
					c-0.135,0.642-0.62,2.944,0.5,2.772c0.902-0.138,1.611-0.839,2.223-1.444c0.553-0.547,1.413-1.037,2.15-1.28
					c0.801-0.264,2.644-0.222,2.121,1.103c-0.109,0.276-0.304,0.507-0.496,0.733c-1.045,1.232-2.025,2.512-3.086,3.724
					c-0.531,0.606-1.082,1.195-1.652,1.764c-0.296,0.295-0.597,0.585-0.903,0.869c-0.201,0.187-0.773,0.53-0.865,0.778
					c-0.913,0.795-1.422,1.319-2.176,2.267c-1.126,1.415-1.215,3.028-1.419,4.989c-0.081,0.775-0.29,3.746-0.29,3.746
					c-0.511,6.893,0.38,28.393,0.635,30.24c0.118,0.857,0.354,1.939,0.907,2.872c2.065,3.478,14.301,24.746,14.301,24.746
					s8.084,14.266-4.053,19.445c-4.271-6.294-21.717-31.292-23.583-34.801c-1.784-3.353-2.65-6.402-2.721-9.754
					C344.084,84.877,346.714,57.706,346.69,55.654z"/>
				<path style="fill:#F28F8F;" d="M359.467,40.109c1.238,1.181,2.062,2.629,1.94,3.782c-0.122,1.153-0.919,4.513-1.218,5.223
					c-0.299,0.711-0.924,1.644-2.02,1.369c0,0-0.729,1.129-2.232,0.843c0,0-0.755,1.131-2.345,0.872c0,0-0.827,0.933-1.994,0.665
					c0,0,1.145,0.696,2.251-0.158c0,0,1.306,0.448,2.269-0.852c0,0,1.402,0.405,2.217-0.695c0,0,1.374,0.341,2.216-1.092
					c0.842-1.433,1.111-3.528,1.385-5.001C362.21,43.593,362.56,41.972,359.467,40.109z"/>
				<path id="XMLID_587_" style="fill:#27DEBF;" d="M354.414,119.405c3.859,5.246,11.321,16.053,13.256,22.088
					c1.616,3.387,5.923,0.512,7.781-6.593c2.592-9.913,10.359-14.904,6.941-15.409c-4.209-0.622-16.401-15.003-16.401-15.003
					c-2.359-2.997-6.048-8.997-6.048-8.997l-1.228-22.2c0,0-5.715,2.646-13.242-1.354c0,0-1.233,8.454-1.779,18.197
					c-0.545,9.743-0.427,12.235,1.606,15.772C347.756,110.179,350.556,114.159,354.414,119.405z"/>
			</g>
			<path id="XMLID_580_" style="fill:#455A64;" d="M418.357,137.689l-6.102,29.748l-0.748,25.881
				c-13.823,6.473-35.549,4.246-49.444-6.941c0,0,2.096-45.543,4.963-55.64c2.867-10.097,7.992-12.152,15.147-11.928
				c7.547,0.236,17.247,1.304,17.247,1.304l13.329,2.603C412.749,122.715,418.526,134.102,418.357,137.689z"/>
			<g>
				<g id="XMLID_512_">
					<path id="XMLID_513_" style="fill:#FFA8A7;" d="M445.6,166.346c0,0-1.686,13.121-3.37,19.436
						c-1.167,4.376-3.925,13.588-6.773,17.435c-7.072,9.552-13.586,5.397-15.217,4.178c-1.873-1.4-1.99-3.355,2.33-8.169
						c0.968-1.079,1.814-2.277,2.543-3.529c0.365-0.626,1.728-2.387,0.428-2.71c-0.394-0.098-0.804,0.032-1.189,0.16
						c-0.911,0.303-1.823,0.606-2.735,0.91c-0.595,0.198-1.222,0.399-1.839,0.284c-0.617-0.115-1.202-0.663-1.122-1.286
						c0.07-0.545,0.583-0.907,1.05-1.196c2.821-1.741,5.711-3.369,8.661-4.88c0.6-0.307,1.751-0.581,2.089-1.166
						c0.14-0.241,0.344-0.874,0.387-1.16c0.12-0.801,0.217-1.605,0.313-2.409c0.257-2.172,0.479-4.349,0.694-6.526
						c0.296-2.988,0.371-8.977,0.634-11.968l-17.872-20.161c0,0-4.521-5.854-4.521-21.387c0,0,4.564,0.14,8.88,2.151
						c5.134,2.392,22.201,27.987,24.433,30.52C445.638,157.405,446.451,158.938,445.6,166.346z"/>
				</g>
				<path style="fill:#27DEBF;" d="M408.915,121.972c1.176,0.23,5.681-0.041,8.671,1.283c2.99,1.324,5.31,2.93,9.124,8.06
					c3.814,5.13,15.977,21.354,17.845,23.845c1.868,2.491,2.491,3.675,1.868,8.595c-0.623,4.92-2.952,16.302-2.952,16.302
					s-5.233,0.782-11.853-2.03l0.199-14.186l-19.068-20.925C412.75,142.916,406.686,134.981,408.915,121.972z"/>
			</g>
		</g>
		<g id="XMLID_294_">
			<g id="XMLID_693_">
				<path id="XMLID_504_" style="fill:#263238;" d="M397.201,87.964c-0.336,7.136-6.394,12.647-13.53,12.311
					c-7.136-0.336-12.647-6.394-12.311-13.529c0.336-7.136,6.394-12.647,13.529-12.311
					C392.026,74.771,397.538,80.829,397.201,87.964z"/>
				<path id="XMLID_502_" style="fill:#263238;" d="M406.182,97.595c0,0-2.557,9.738-3.473,11.314
					c-0.916,1.577-2.672,1.954-2.672,1.954l0.473-6.913L406.182,97.595z"/>
				<path id="XMLID_498_" style="fill:#263238;" d="M404.219,83.38c0,0,2.273-0.28,3.946,1.6c1.64,1.844,0.418,7.314-1.983,12.615
					l-3.965,0.267L404.219,83.38z"/>
				<path id="XMLID_482_" style="fill:#FFA8A7;" d="M401.034,97.809c0.768,0.51,1.968-0.956,2.992-1.931
					c1.023-0.974,4.273-2.218,5.703,1.203c1.458,3.487-1.775,7.85-4.319,8.519c-4.383,1.152-4.901-1.649-4.901-1.649l-1.076,16.042
					l0,0c-5.695,6.632-20.724,6.621-14.175-0.278l0.389-6.015c0,0-3.942,0.409-5.837,0.024c-3.153-0.641-5.614-3.065-6.165-6.597
					c-0.968-6.205-1.016-10.158,0.49-21.011c1.65-11.891,15.853-11.308,23.109-6.249C404.499,84.926,401.034,97.809,401.034,97.809z
					"/>
				<path id="XMLID_479_" style="fill:#263238;" d="M400.971,99.14c0.398,0.026,2.028-2.412,3.055-3.261
					c1.423-1.177,0.193-12.499,0.193-12.499s1.837-3.097-0.653-6.112c-1.817-2.2-4.024-3.509-6.863-3.992
					c-4.163-0.708-8.437-0.477-12.289-2.497c-0.763-0.4-1.503-0.863-2.331-1.101c-0.828-0.237-1.785-0.215-2.473,0.302
					c-0.647,0.486-0.946,1.328-0.963,2.137c-0.017,0.809,0.21,1.6,0.439,2.376c-1.098-0.161-2.223-0.322-3.31-0.097
					c-1.087,0.225-2.145,0.919-2.49,1.973c-0.364,1.114,0.126,2.308,0.608,3.376c1.451,3.219,5.393,3.899,8.544,4.434
					c5.031,0.855,12.946,0.492,14.031,0.395c1.477-0.132,1.723,1.305,2.331,5.228C399.332,93.244,399.635,99.051,400.971,99.14z"/>
				<path id="XMLID_695_" style="fill:#263238;" d="M404.17,84.253l4.902-2.341c-0.614-1.402-2.209-2.015-3.563-1.368
					C404.155,81.19,403.556,82.851,404.17,84.253z"/>
				<path id="XMLID_467_" style="fill:#F28F8F;" d="M385.646,113.7c0,0,7.158-1.094,9.699-2.295
					c1.701-0.804,3.139-2.268,3.587-3.229c0,0-0.564,2.082-2.136,3.907c-1.922,2.232-11.275,3.542-11.275,3.542L385.646,113.7z"/>
			</g>
			<g id="XMLID_295_">
				<path id="XMLID_462_" style="fill:#263238;" d="M388.216,95.428c-0.038,0.815,0.567,1.505,1.352,1.539
					c0.785,0.035,1.452-0.598,1.491-1.413c0.038-0.815-0.566-1.505-1.352-1.54C388.922,93.98,388.254,94.613,388.216,95.428z"/>
				<path id="XMLID_452_" style="fill:#263238;" d="M389.976,90.134l2.961,1.821c0.489-0.852,0.223-1.951-0.594-2.453
					C391.525,88.999,390.465,89.282,389.976,90.134z"/>
				<path id="XMLID_300_" style="fill:#F28F8F;" d="M387.855,104.342l-4.482,1.445c0.376,1.283,1.685,2,2.923,1.601
					C387.534,106.988,388.232,105.625,387.855,104.342z"/>
				<path id="XMLID_299_" style="fill:#263238;" d="M375.741,90.648l2.873-2.004c-0.528-0.821-1.599-1.037-2.392-0.483
					C375.429,88.714,375.214,89.828,375.741,90.648z"/>
				<path id="XMLID_298_" style="fill:#263238;" d="M376.417,94.466c-0.038,0.815,0.567,1.505,1.352,1.539
					c0.785,0.035,1.452-0.598,1.491-1.413c0.039-0.815-0.567-1.505-1.351-1.54C377.123,93.018,376.455,93.651,376.417,94.466z"/>
				<polygon id="XMLID_296_" style="fill:#F28F8F;" points="383.72,93.46 382.85,101.983 378.46,100.252 				"/>
			</g>
		</g>
	</g>
</g>
</svg>
